<svg width="143" height="177" viewBox="0 0 143 177" fill="none" xmlns="http://www.w3.org/2000/svg">
<g clip-path="url(#clip0)">
<path d="M109.751 150.843V164.02C109.751 166.085 108.084 167.757 106.024 167.757H105.926C103.866 167.757 102.199 166.085 102.199 164.02V161.316C102.199 161.07 102.199 160.922 102.199 160.922V147.451H118.382V124.097C118.382 119.082 114.312 115.001 109.31 115.001H100.924C95.9218 115.001 91.8515 119.082 91.8515 124.097V144.55V165.937C91.8515 172.034 97.1968 177 103.768 177H106.563C113.135 177 118.48 172.034 118.48 165.937V150.843H109.751ZM102.199 126.506C102.199 125.326 103.131 124.392 104.308 124.392H107.054C108.231 124.392 109.163 125.326 109.163 126.506V139.535H102.199V126.506Z" fill="black"/>
<path d="M107.544 10.5217V0.196655H32.2682V62.9333H60.5641V52.1167H43.106V39.235H60.417V28.5658H43.106V10.5217H107.544Z" fill="black"/>
<path d="M26.9719 76.405C26.9719 76.405 29.1296 74.0941 29.1296 70.21V11.6525C29.1296 11.6525 29.2768 0.294983 18.5861 0.294983L0.0980835 0.34415V114.657H9.90604V81.42H16.9678C16.9678 81.42 18.5861 81.42 18.6842 83.2392V114.804H29.1296V114.755V114.804V82.6C29.1787 82.6 29.2768 77.9783 26.9719 76.405ZM18.7332 69.3742C18.7332 70.3083 17.9976 71.0458 17.0658 71.0458H11.5734C10.6416 71.0458 9.90604 70.3083 9.90604 69.3742V12.1933C9.90604 11.2591 10.6416 10.5216 11.5734 10.5216H17.0658C17.9976 10.5216 18.7332 11.2591 18.7332 12.1933V69.3742Z" fill="black"/>
<path d="M107.544 13.6192H46.5878V24.9767H63.9969V108.806H74.6386V24.9767H107.544V13.6192Z" fill="black"/>
<path d="M107.544 49.6092V39.2842C106.416 27.8283 96.3632 28.4183 96.3632 28.4183H88.713H87.9283H78.4637V112.297H88.762V60.7208H96.2651C97.393 60.7208 97.2949 61.9008 97.2949 61.9008V65.7358V112.247H107.593V65.7358V65.0966V60.9667C107.348 57.82 105.583 55.6567 105.583 55.6567C107.642 53.395 107.544 49.6092 107.544 49.6092ZM97.1478 48.7242C97.1478 49.9042 96.2161 50.8383 95.0391 50.8383H89.1543V38.5958H94.892C96.118 38.5958 97.1478 39.5792 97.1478 40.8575V48.7242Z" fill="black"/>
<path d="M130.446 0H123.384C116.519 0 110.977 5.55583 110.977 12.4392V45.3808C110.977 52.2642 116.519 57.82 123.384 57.82H130.446C137.311 57.82 142.853 52.2642 142.853 45.3808V12.4392C142.853 5.55583 137.262 0 130.446 0ZM132.456 45.2825C132.456 46.3642 131.623 47.2 130.544 47.2H123.188C122.109 47.2 121.275 46.3642 121.275 45.2825V12.685C121.275 11.6033 122.109 10.7675 123.188 10.7675H130.544C131.623 10.7675 132.456 11.6033 132.456 12.685V45.2825Z" fill="black"/>
<path d="M49.8244 66.0309V108.413V122.769C49.8244 123.753 48.8927 124.539 47.7157 124.539H45.9503C44.7733 124.539 43.8416 123.753 43.8416 122.769V66.0309H32.3172V123.31C32.3172 129.407 38.153 134.373 45.3618 134.373H48.4023C48.8927 134.373 49.3831 134.323 49.8735 134.323V165.2C49.8735 166.183 48.9417 166.97 47.7648 166.97H45.9993C44.8224 166.97 43.8906 166.183 43.8906 165.2V136.536H32.3172V165.692C32.3172 171.788 38.153 176.754 45.3618 176.754H48.4023C55.6111 176.754 61.4469 171.788 61.4469 165.692V123.31V108.413V66.0309H49.8244Z" fill="black"/>
<path d="M80.0329 138.994V165.102C80.0329 166.085 79.1992 166.872 78.1204 166.872H76.5021C75.4232 166.872 74.5895 166.085 74.5895 165.102V124.834H89.8899V115.542H74.5895V108.363H63.9969V115.542V124.834V165.643C63.9969 171.739 69.3423 176.705 75.9136 176.705H78.7088C85.2802 176.705 90.6255 171.739 90.6255 165.643V138.994H80.0329Z" fill="black"/>
<path d="M143 108.609L142.951 101.48C142.951 101.48 143.098 98.9233 140.842 95.9242C137.606 91.3517 131.868 91.3025 131.868 91.3025H124.708C122.354 91.3025 120.491 89.385 120.491 87.0742V72.0783C120.491 71.1933 121.226 70.4558 122.109 70.4558H131.868C132.751 70.4558 133.486 71.1933 133.486 72.0783V88.3033H142.804V72.5208V71.2425C142.804 65.5392 138.243 60.9667 132.604 60.9667H121.472C115.832 60.9667 111.271 65.5883 111.271 71.2425V72.5208V88.5983V89.8767C111.271 95.58 115.832 100.153 121.472 100.153H130.936C131.819 100.3 133.928 100.89 133.83 103.299V108.609V165.347C133.83 166.331 133.094 167.117 132.162 167.117H130.789C129.857 167.117 129.122 166.331 129.122 165.347V102.808H120V165.888C120 171.985 124.61 176.951 130.299 176.951H132.702C138.39 176.951 143 171.985 143 165.888V108.609Z" fill="black"/>
<path d="M28.9825 154.629C28.9825 152.171 28.1488 149.86 26.7267 148.09C28.1488 146.517 28.9825 144.402 28.9825 142.141V129.357C28.9825 123.457 24.2256 118.688 18.3409 118.688H-0.0490417V144.009V151.187V176.508H19.9592C24.9122 176.508 28.9335 172.477 28.9335 167.511L28.9825 154.629ZM14.5158 168.642H10.1022V152.466H14.5158C16.7226 152.466 18.488 154.236 18.488 156.448V164.61C18.537 166.872 16.7226 168.642 14.5158 168.642ZM14.5158 143.222H10.1022V127.047H14.5158C16.7226 127.047 18.488 128.817 18.488 131.029V139.191C18.537 141.403 16.7226 143.222 14.5158 143.222Z" fill="black"/>
</g>
<defs>
<clipPath id="clip0">
<rect width="143" height="177" fill="white"/>
</clipPath>
</defs>
</svg>
