<svg width="72" height="95" viewBox="0 0 72 95" fill="none" xmlns="http://www.w3.org/2000/svg">
<g clip-path="url(#clip0)">
<path fill-rule="evenodd" clip-rule="evenodd" d="M38.5771 53.8529V0H30.7321V53.8529H38.5771Z" fill="white"/>
<path fill-rule="evenodd" clip-rule="evenodd" d="M24.9684 0H29.1314C29.1314 24.9659 28.4908 31.0477 24.6484 38.4096C20.8064 45.7715 10.0791 53.0527 0.952994 53.8535V45.6247C7.83733 44.5041 14.0816 40.8099 19.5252 32.6477C24.9684 24.486 25.1284 5.12104 24.9684 0Z" fill="white"/>
<path fill-rule="evenodd" clip-rule="evenodd" d="M44.3408 0H40.1782C40.1782 24.9659 40.8188 31.0477 44.6608 38.4096C48.5033 45.7715 59.2306 53.0527 68.3567 53.8535V45.6247C61.4723 44.5041 55.2281 40.8099 49.7844 32.6477C44.3407 24.4855 44.1812 5.12104 44.3408 0Z" fill="white"/>
<path fill-rule="evenodd" clip-rule="evenodd" d="M68.2287 83.0494V58.7305H64.5853V83.0494H68.2287Z" fill="white"/>
<path fill-rule="evenodd" clip-rule="evenodd" d="M15.6523 58.7305V62.3728H20.7058V83.0494H24.3497V62.3728H29.4032V58.7305H15.6523Z" fill="white"/>
<path fill-rule="evenodd" clip-rule="evenodd" d="M50.9122 63.4885V83.0495H47.2683V62.3723C47.2683 59.8461 48.2675 58.73 50.8532 58.73H54.7907C57.7289 58.73 61.3138 60.9622 61.3138 65.838C61.3138 70.7138 58.6108 71.9467 57.2001 72.7104C56.3777 73.2979 56.5539 73.7681 56.9065 74.5318L62.6067 83.0489L58.3461 83.0195L52.7633 74.6192C51.7351 72.945 52.205 71.183 53.3221 70.5955C54.1603 70.1542 57.671 69.1858 57.671 66.0721C57.671 63.0766 55.8488 62.3718 54.4387 62.3718H51.9708C51.2647 62.3729 50.9122 62.6664 50.9122 63.4885Z" fill="white"/>
<path fill-rule="evenodd" clip-rule="evenodd" d="M39.1587 61.1389C38.5125 58.9067 37.1603 58.7305 36.2205 58.7305C35.2802 58.7305 33.9284 58.9067 33.2822 61.1389L27.1116 83.0494H30.8728L32.5771 76.9407H39.8638L41.5681 83.0494H45.3288L39.1587 61.1389ZM33.5759 73.4162L36.2205 64.1938L38.8651 73.4162H33.5759Z" fill="white"/>
<path fill-rule="evenodd" clip-rule="evenodd" d="M12.0471 61.1389C11.4009 58.9067 10.0491 58.7305 9.10884 58.7305C8.16854 58.7305 6.81677 58.9067 6.1706 61.1389L0 83.0494H3.76119L5.46551 76.9407H12.7527L14.457 83.0494H18.2182L12.0471 61.1389ZM6.46473 73.4162L9.10935 64.1938L11.754 73.4162H6.46473Z" fill="white"/>
<path fill-rule="evenodd" clip-rule="evenodd" d="M1.41121 88.8414C0.799074 89.5081 0.492753 90.4059 0.492753 91.5352C0.492753 92.667 0.806693 93.5577 1.43407 94.2067C2.00911 94.7236 2.69643 94.9815 3.49551 94.9815C4.11373 94.9815 4.62325 94.8683 5.02457 94.6423C5.26332 94.5103 5.53713 94.2747 5.8465 93.9355L6.06697 94.8028H6.65472V91.1955H3.69311V91.9526H5.80535C5.79621 92.7422 5.592 93.314 5.1922 93.6669C4.79241 94.0203 4.28848 94.197 3.6794 94.197C2.88388 94.197 2.30985 93.9457 1.95781 93.4419C1.60577 92.9392 1.43 92.2867 1.43 91.4849C1.43 90.5582 1.64336 89.8605 2.07007 89.3923C2.4973 88.9241 3.02256 88.69 3.6474 88.69C4.17368 88.69 4.61004 88.8028 4.95599 89.0272C5.30193 89.2522 5.53002 89.6107 5.64025 90.1037H6.54448C6.39463 89.2227 5.98417 88.6063 5.31412 88.2538C4.85185 88.0096 4.30423 87.8867 3.67076 87.8867C2.74571 87.8872 1.99286 88.2051 1.41121 88.8414Z" fill="white"/>
<path fill-rule="evenodd" clip-rule="evenodd" d="M19.7615 88.061H18.7282L16.1893 94.8029H17.126L17.856 92.783H20.5235L21.2077 94.8029H22.2085L19.7615 88.061ZM18.1181 92.0401L19.2062 89.0619L20.2304 92.0401H18.1181Z" fill="white"/>
<path fill-rule="evenodd" clip-rule="evenodd" d="M31.7161 94.8034V88.0615H33.0247L34.9622 93.762L36.8859 88.0615H38.1808V94.8034H37.3132V90.8239C37.3132 90.6863 37.3162 90.4588 37.3223 90.1404C37.3289 89.822 37.332 89.4808 37.332 89.1167L35.4072 94.8034H34.5029L32.5655 89.1167V89.3229C32.5655 89.4879 32.569 89.7398 32.5771 90.078C32.5848 90.4161 32.5883 90.6644 32.5883 90.8234V94.8029H31.7161V94.8034Z" fill="white"/>
<path fill-rule="evenodd" clip-rule="evenodd" d="M48.3554 94.8034V88.061H53.2728V88.8872H49.2464V90.9346H52.9695V91.7146H49.2464V94.0001H53.3419V94.8034H48.3554Z" fill="white"/>
<path fill-rule="evenodd" clip-rule="evenodd" d="M62.978 92.6282H63.8365C63.8579 93.0106 63.9483 93.3208 64.1073 93.5595C64.4101 94.0064 64.944 94.2298 65.7095 94.2298C66.0524 94.2298 66.3643 94.1805 66.6463 94.083C67.1908 93.8931 67.4631 93.5534 67.4631 93.0639C67.4631 92.6968 67.3483 92.4353 67.1187 92.2789C66.886 92.126 66.5218 91.993 66.026 91.8797L65.1126 91.6736C64.5152 91.5385 64.0931 91.3902 63.8452 91.2283C63.4164 90.9469 63.2021 90.526 63.2021 89.9664C63.2021 89.3606 63.4119 88.8635 63.8309 88.4745C64.25 88.0861 64.8439 87.8921 65.6125 87.8921C66.3196 87.8921 66.9201 88.0627 67.4148 88.4039C67.9091 88.7452 68.1565 89.2905 68.1565 90.04H67.298C67.2518 89.679 67.1542 89.4023 67.0044 89.2093C66.7255 88.8574 66.2531 88.6817 65.5856 88.6817C65.0466 88.6817 64.6595 88.7949 64.4238 89.0209C64.1881 89.2474 64.0707 89.5109 64.0707 89.8105C64.0707 90.1411 64.2084 90.3828 64.4837 90.5361C64.6636 90.6336 65.0725 90.7565 65.7095 90.9033L66.6549 91.1191C67.1106 91.2232 67.4631 91.3654 67.711 91.5461C68.1392 91.861 68.3536 92.3185 68.3536 92.9182C68.3536 93.6651 68.0823 94.1983 67.5388 94.5197C66.9952 94.8407 66.3638 95.0011 65.6445 95.0011C64.8058 95.0011 64.1495 94.7868 63.675 94.3588C63.201 93.9327 62.9684 93.3559 62.978 92.6282Z" fill="white"/>
<path fill-rule="evenodd" clip-rule="evenodd" d="M71.7983 55.6545C71.6632 55.4194 71.4783 55.235 71.2426 55.101C71.0069 54.9669 70.7554 54.8999 70.4887 54.8999C70.2231 54.8999 69.9721 54.9669 69.7359 55.101C69.4997 55.235 69.3148 55.4194 69.1801 55.6545C69.046 55.8896 68.979 56.142 68.979 56.4111C68.979 56.6853 69.0491 56.9402 69.1883 57.1763C69.3275 57.4129 69.5134 57.5952 69.745 57.7252C69.9762 57.8552 70.2241 57.9197 70.4887 57.9197C70.7534 57.9197 71.0013 57.8552 71.2335 57.7252C71.4656 57.5952 71.651 57.4129 71.7912 57.1763C71.9304 56.9402 72.0005 56.6853 72.0005 56.4111C72 56.142 71.933 55.8896 71.7983 55.6545ZM71.5946 57.0621C71.4758 57.2621 71.3183 57.417 71.1212 57.5267C70.9246 57.6359 70.7138 57.6907 70.4887 57.6907C70.2637 57.6907 70.0529 57.6359 69.8563 57.5267C69.6597 57.417 69.5027 57.2621 69.3838 57.0621C69.266 56.8615 69.2066 56.6452 69.2066 56.4116C69.2066 56.1826 69.2634 55.9683 69.3772 55.7687C69.4915 55.5692 69.648 55.4128 69.8487 55.2985C70.0488 55.1843 70.2622 55.1279 70.4887 55.1279C70.7153 55.1279 70.9287 55.1843 71.1288 55.2985C71.3295 55.4128 71.4859 55.5692 71.6002 55.7687C71.714 55.9683 71.7709 56.1821 71.7709 56.4116C71.7714 56.6447 71.713 56.8615 71.5946 57.0621Z" fill="white"/>
<path fill-rule="evenodd" clip-rule="evenodd" d="M70.9129 56.7762C70.8392 56.6401 70.7707 56.5528 70.7056 56.5117C70.8291 56.4588 70.921 56.3847 70.981 56.2882C71.0409 56.1917 71.0714 56.0897 71.0714 55.983C71.0714 55.8911 71.0495 55.8058 71.0069 55.7281C70.9637 55.6499 70.9058 55.5895 70.8311 55.5474C70.7569 55.5052 70.6482 55.4839 70.5035 55.4839H69.9101V57.349H70.2037V56.565H70.4227C70.4532 56.565 70.5029 56.6259 70.5715 56.7468L70.632 56.8625L70.887 57.349H71.2212L70.9129 56.7762ZM70.408 56.3415H70.2042V55.7099H70.4267C70.5294 55.7099 70.602 55.7241 70.6426 55.752C70.6838 55.7804 70.7153 55.8155 70.7366 55.8581C70.758 55.9003 70.7686 55.9475 70.7686 55.9998C70.7686 56.0856 70.7422 56.1638 70.6899 56.2349C70.636 56.3055 70.5426 56.3415 70.408 56.3415Z" fill="white"/>
</g>
<defs>
<clipPath id="clip0">
<rect width="72" height="95" fill="white"/>
</clipPath>
</defs>
</svg>
