<svg width="147" height="39" viewBox="0 0 147 39" fill="none" xmlns="http://www.w3.org/2000/svg">
<path d="M30.8409 39C34.4709 39 36.8262 37.3369 36.7985 34.8422L36.5214 22.6183C36.466 20.5672 35.6624 19.6525 33.0023 18.4883C32.0878 18.1002 32.0324 17.7122 32.8914 17.5736C34.0829 17.3241 35.4407 15.7441 35.4961 14.5245L36.078 4.96162C36.2166 2.2452 33.5842 0.110874 29.9542 0.110874L0 0L0.859001 39H30.8409ZM16.9029 4.43497C16.9029 3.68657 16.9583 3.65885 18.5101 3.68657L27.8483 3.76972C28.6518 3.82516 29.2892 4.29638 29.2892 4.90618V14.968C29.2892 15.5778 28.7904 15.9382 27.9868 15.9382H16.9029V4.43497ZM30.2867 34.2878C30.3421 35.3412 29.8988 35.5906 27.9037 35.5906H19.1751C17.9836 35.5906 17.8728 35.5075 17.8173 34.565L17.2909 25.9446C17.2354 25.5565 17.2354 24.8913 17.2354 24.5032V19.403H27.7097C29.4 19.403 29.594 19.5693 29.6771 20.9275L30.2867 34.2878Z" fill="white"/>
<path d="M69.6345 0.249512C68.0273 0.249512 68.0273 0.249512 68.0273 1.46913L68.1659 15.3838C68.2213 16.0768 68.1659 17.1855 68.055 17.8785V18.128C67.7779 20.29 65.672 21.6205 62.6516 21.6205H62.1529C58.5506 21.6205 56.1399 19.5971 56.1399 16.7143V0.249512H39.1261V17.4073C39.1261 18.1003 39.4032 19.209 39.6803 19.8742L40.1791 20.8998C41.232 23.3668 43.144 24.8636 46.3583 25.7783L47.3282 26.0555C48.6305 26.3881 49.0462 26.8039 49.1016 27.7186L49.6004 39H66.2816L65.9491 27.9958C65.9491 27.3028 66.5864 26.6098 67.4731 26.4435C68.2767 26.2495 69.5236 25.6674 70.2441 25.2239L72.2946 23.838C72.9874 23.3945 73.8186 22.5075 74.1234 21.8977L74.5114 21.2047C74.8439 20.5949 75.0933 19.5416 75.0656 18.8764L74.7331 0.249512H69.6345Z" fill="white"/>
<path d="M104.022 39L103.551 3.93608H111.836C112.972 3.93608 113.527 3.54802 113.582 2.71646V2.43928C113.721 0.27723 113.693 0.249512 112.003 0.249512H78.1968C77.3378 0.249512 76.5065 0.526697 76.5065 0.85932C76.451 1.21966 76.3679 2.05122 76.3679 2.71646C76.3679 3.49258 76.9498 3.93608 78.0028 3.93608H86.0663L87.147 39H104.022Z" fill="white"/>
<path d="M145.393 39C146.751 39 147 38.8337 147 37.7804V36.7826C147 35.7847 146.751 35.5629 145.393 35.5629H134.226C132.286 35.5629 132.286 35.5629 132.286 34.0661V19.6525H145.06C147 19.6525 147 19.6525 147 18.128V17.6568C147 16.1877 147 16.1877 145.005 16.1877H133.782C131.926 16.1877 131.926 16.1877 131.926 14.4691V6.9574C131.926 4.49045 132.314 3.93608 133.893 3.93608H145.06C145.919 3.93608 146.751 3.85292 146.834 3.8252C146.889 3.74205 146.972 3.13224 146.972 2.49471V1.46913C146.972 0.443542 146.723 0.249512 145.365 0.249512H115.106L115.66 39H145.393ZM128.047 2.49471C127.88 2.49471 127.714 2.41156 127.714 2.3284C127.714 2.27297 127.769 2.18981 127.853 2.18981C127.936 2.18981 128.019 2.13437 128.019 2.05122C128.019 2.0235 128.074 1.94034 128.185 1.94034C128.296 1.94034 128.324 2.05122 128.324 2.18981C128.379 2.35612 128.213 2.49471 128.047 2.49471Z" fill="white"/>
</svg>
