<svg width="205" height="54" viewBox="0 0 205 54" fill="none" xmlns="http://www.w3.org/2000/svg">
<g clip-path="url(#clip0)">
<path fill-rule="evenodd" clip-rule="evenodd" d="M82.2079 49.6296C82.2079 50.9357 82.2079 52.292 82.2079 53.598C74.8334 53.6482 68.7952 53.9496 65.9246 49.4789C64.3904 47.118 64.8358 42.1952 64.8358 38.3775C64.7368 31.345 64.6873 24.3124 64.5883 17.2799C64.5883 14.2659 65.2318 9.64452 64.2419 7.28359C62.3117 2.71243 53.5019 3.41568 51.8686 7.78592C51.8191 8.9915 51.7697 10.1971 51.7697 11.4027C54.9372 11.4027 58.1048 11.4027 61.2723 11.4027C61.2723 12.9096 61.2723 14.4668 61.2723 15.9738C58.1048 15.9738 54.9372 15.9738 51.7697 15.9738C51.7697 19.0882 51.7697 22.2529 51.7697 25.3673C50.2849 25.3673 48.7506 25.3673 47.2658 25.3673C47.2163 19.6408 46.1769 7.73568 48.3546 4.16917C51.5717 -1.15548 63.6975 -1.40664 67.4589 3.56638C71.0224 8.23801 69.3397 27.678 69.3397 36.2175C69.3397 40.2864 68.7952 45.4603 70.5275 47.771C72.4082 50.3329 77.902 49.6799 82.2079 49.6296Z" fill="white"/>
<path fill-rule="evenodd" clip-rule="evenodd" d="M43.2569 0.552825C43.2569 1.85887 43.2569 3.21515 43.2569 4.5212C39.4954 4.47096 32.5169 3.61701 30.6857 5.72678C27.4191 9.39375 28.0625 19.2896 32.4674 21.0477C34.5956 21.9017 40.4853 21.3491 43.2569 21.2989C43.2569 22.6049 43.2569 23.8607 43.2569 25.1668C37.4167 25.217 30.5372 25.87 27.3201 23.2579C22.2223 19.0886 22.6678 6.48027 27.6666 2.66259C30.9826 0.100732 37.3177 0.502593 43.2569 0.552825Z" fill="white"/>
<path fill-rule="evenodd" clip-rule="evenodd" d="M73.8931 0.552688C80.4261 0.452223 90.4237 -0.602661 94.0862 2.46153C98.3921 6.07827 95.5215 15.1201 90.6217 15.9741C92.354 19.0383 94.0862 22.1025 95.868 25.1164C93.9872 25.1164 92.156 25.1164 90.2752 25.1164C88.543 22.0522 86.8107 18.988 85.029 15.9741C83.8906 15.9741 82.7523 15.9741 81.5645 15.9741C81.5645 14.5173 81.5645 13.0606 81.5645 11.6541C85.8209 11.7545 93.0963 12.4578 90.9681 6.73129C89.9783 4.06897 82.2574 4.97315 78.5949 5.02339C78.5949 11.7545 78.5949 18.5359 78.5949 25.2671C77.0111 25.2671 75.4273 25.2671 73.8436 25.2671C73.8931 17.029 73.8931 8.79083 73.8931 0.552688Z" fill="white"/>
<path fill-rule="evenodd" clip-rule="evenodd" d="M154.171 0.552585C154.171 1.90886 154.171 3.26514 154.171 4.67165C146.945 4.52096 139.174 2.91351 139.323 10.9507C144.272 10.9507 149.221 10.9507 154.171 10.9507C154.171 12.307 154.171 13.6633 154.171 15.0698C149.221 15.0698 144.272 15.0698 139.323 15.0698C139.323 18.5358 139.323 22.0019 139.323 25.4177C137.739 25.4177 136.155 25.4177 134.571 25.4177C134.571 22.7051 134.571 20.0428 134.571 17.3303C134.621 13.9144 134.67 10.4986 134.67 7.08282C136.502 -0.100439 145.212 0.502352 154.171 0.552585Z" fill="white"/>
<path fill-rule="evenodd" clip-rule="evenodd" d="M176.987 0.552585C176.987 1.90886 176.987 3.26514 176.987 4.67165C169.761 4.52096 161.991 2.91351 162.139 10.9507C167.088 10.9507 172.038 10.9507 176.987 10.9507C176.987 12.307 176.987 13.6633 176.987 15.0698C172.038 15.0698 167.088 15.0698 162.139 15.0698C162.139 18.5358 162.139 22.0019 162.139 25.4177C160.555 25.4177 158.972 25.4177 157.388 25.4177C157.388 22.7051 157.388 20.0428 157.388 17.3303C157.437 13.9144 157.487 10.4986 157.487 7.08282C159.268 -0.100439 168.029 0.502352 176.987 0.552585Z" fill="white"/>
<path fill-rule="evenodd" clip-rule="evenodd" d="M100.025 0.703459C107.697 0.602994 116.704 -0.65282 119.971 3.96858C123.782 9.24299 122.792 20.0932 118.09 23.509C115.665 25.2672 112.052 25.2672 107.746 25.2169C107.746 23.9109 107.746 22.6551 107.746 21.349C110.072 21.349 113.388 21.6504 114.873 20.6458C118.09 18.3853 118.239 9.84578 115.814 6.53044C113.537 3.46625 108.885 5.57602 104.529 4.4709C104.529 11.403 104.529 18.3853 104.529 25.3174C103.044 25.3174 101.51 25.3174 100.025 25.3174C100.025 17.0793 100.025 8.89137 100.025 0.703459Z" fill="white"/>
<path fill-rule="evenodd" clip-rule="evenodd" d="M125.564 0.703125C127.049 0.703125 128.484 0.703125 129.969 0.703125C129.969 8.8408 129.969 17.0287 129.969 25.1664C128.484 25.1664 127.049 25.1664 125.564 25.1664C125.564 16.9785 125.564 8.8408 125.564 0.703125Z" fill="white"/>
<path d="M37.7632 30.6921C32.9623 30.6419 28.211 30.6419 23.4102 30.5917C22.4203 28.1303 20.0447 18.2847 18.7578 17.0791C17.3225 21.4996 15.8378 25.92 14.353 30.3405C13.8085 31.0438 11.8288 30.5917 10.6905 30.5917C7.12699 30.5917 3.5635 30.5917 0 30.5917C3.81096 33.3544 7.62192 36.1172 11.3834 38.9303C9.99758 43.3005 8.61178 47.6707 7.22598 52.0912C11.0864 49.4289 14.9964 46.7665 18.8568 44.1544C22.5688 46.8168 26.2808 49.4791 30.0422 52.0912C28.7554 47.721 27.5181 43.3507 26.2313 38.9303C30.0422 36.2679 33.8532 33.6056 37.6147 30.9935C37.7137 30.8428 37.7137 30.7926 37.7632 30.6921ZM11.8783 45.7619C12.8682 43.3005 13.858 40.8391 14.8479 38.4279C12.5217 36.72 10.1956 34.9619 7.81989 33.254C7.72091 33.254 7.67141 33.254 7.57243 33.254C7.67141 33.254 7.72091 33.254 7.81989 33.254C10.5915 33.3042 13.3631 33.3544 16.1347 33.3544C17.0256 30.6419 17.867 27.8791 18.7578 25.1665C18.8073 30.3405 18.8568 35.5144 18.8568 40.7386C16.5307 42.3963 14.2045 44.1042 11.8783 45.7619Z" fill="white"/>
<path fill-rule="evenodd" clip-rule="evenodd" d="M60.6784 29.1349C60.6784 30.4409 60.6784 31.7972 60.6784 33.1032C52.1161 33.0028 47.6618 31.546 46.177 39.2316C51.0273 39.2316 55.8281 39.2316 60.6784 39.2316C60.6784 40.5879 60.6784 41.9442 60.6784 43.3507C55.8281 43.3507 51.0273 43.3507 46.177 43.3507C46.7709 51.0865 52.6605 49.9814 60.6784 49.8809C60.6784 51.187 60.6784 52.4428 60.6784 53.7488C54.8382 53.799 47.9587 54.4521 44.7417 51.84C39.6439 47.6707 40.0893 35.0623 45.0881 31.2446C48.4536 28.6828 54.7887 29.0846 60.6784 29.1349Z" fill="white"/>
<path fill-rule="evenodd" clip-rule="evenodd" d="M103.44 29.1349C103.44 30.4409 103.44 31.7972 103.44 33.1032C94.8781 33.0028 90.4237 31.546 88.9389 39.2316C93.7892 39.2316 98.5901 39.2316 103.44 39.2316C103.44 40.5879 103.44 41.9442 103.44 43.3507C98.5901 43.3507 93.7892 43.3507 88.9389 43.3507C89.5328 51.0865 95.4225 49.9814 103.44 49.8809C103.44 51.187 103.44 52.4428 103.44 53.7488C97.6002 53.799 90.7207 54.4521 87.5036 51.84C82.4059 47.6707 82.8513 35.0623 87.8501 31.2446C91.2156 28.6828 97.5507 29.0846 103.44 29.1349Z" fill="white"/>
<path fill-rule="evenodd" clip-rule="evenodd" d="M148.974 29.1349C148.974 30.441 148.974 31.7973 148.974 33.1033C146.004 33.1033 143.035 33.1033 140.065 33.1033C140.065 39.9852 140.065 46.867 140.065 53.6987C138.58 53.6987 137.145 53.6987 135.66 53.6987C135.66 46.8168 135.66 39.935 135.66 33.1033C131.008 33.0531 116.012 32.0987 114.032 34.3089C110.765 37.9759 111.458 47.8717 115.814 49.6298C117.942 50.4838 123.831 49.9312 126.603 49.881C126.603 51.187 126.603 52.4429 126.603 53.7489C122.297 53.7991 115.022 54.7033 112.102 52.895C106.162 49.228 105.074 35.7656 111.013 31.1945C113.982 28.934 118.684 29.1349 123.98 29.1349C132.344 29.1349 140.659 29.1349 148.974 29.1349Z" fill="white"/>
<path fill-rule="evenodd" clip-rule="evenodd" d="M151.201 29.1347C157.734 29.0343 167.732 27.9794 171.394 31.0436C175.7 34.6603 172.83 43.7022 167.93 44.5561C169.662 47.6203 171.394 50.6845 173.176 53.6984C171.295 53.6984 169.464 53.6984 167.583 53.6984C165.851 50.6343 164.119 47.5701 162.337 44.5561C161.199 44.5561 160.06 44.5561 158.873 44.5561C158.873 43.0994 158.873 41.6426 158.873 40.2361C163.129 40.3366 170.404 41.0398 168.276 35.3133C167.286 32.651 159.565 33.5552 155.903 33.6054C155.903 40.3366 155.903 47.118 155.903 53.8491C154.319 53.8491 152.735 53.8491 151.152 53.8491C151.201 45.611 151.201 37.3729 151.201 29.1347Z" fill="white"/>
<path fill-rule="evenodd" clip-rule="evenodd" d="M205 29.1349C205 30.4409 205 31.7972 205 33.1032C201.239 33.053 194.26 32.199 192.429 34.3088C189.162 37.9758 189.806 47.8716 194.211 49.6297C196.339 50.4837 202.228 49.9311 205 49.8809C205 51.187 205 52.4428 205 53.7488C199.16 53.799 192.28 54.4521 189.063 51.84C183.965 47.6707 184.411 35.0623 189.41 31.2446C192.775 28.6828 199.11 29.0846 205 29.1349Z" fill="white"/>
<path fill-rule="evenodd" clip-rule="evenodd" d="M177.482 29.2354C178.967 29.2354 180.402 29.2354 181.887 29.2354C181.887 37.373 181.887 45.5609 181.887 53.6986C180.402 53.6986 178.967 53.6986 177.482 53.6986C177.482 45.5609 177.482 37.4233 177.482 29.2354Z" fill="white"/>
</g>
<defs>
<clipPath id="clip0">
<rect width="205" height="54" fill="white"/>
</clipPath>
</defs>
</svg>
