<svg width="187" height="76" viewBox="0 0 187 76" fill="none" xmlns="http://www.w3.org/2000/svg">
<g clip-path="url(#clip0)">
<path d="M143.99 32.0001C143.865 32.0001 143.865 31.8751 143.741 31.8751C141.871 30.8751 139.627 31.6251 138.754 33.5001C138.131 34.8751 138.131 36.6251 138.754 38.0001C139.377 39.2501 140.624 40.0001 141.995 40.0001C142.743 40.0001 143.367 39.8751 143.99 39.5001C144.613 39.1251 145.112 38.6251 145.361 38.0001C145.985 36.6251 145.985 34.8751 145.361 33.5001C145.112 32.8751 144.613 32.3751 143.99 32.0001Z" fill="white"/>
<path d="M123.295 37.5H119.805V40.125H123.42H123.295C124.542 40.125 125.165 39.625 125.165 38.75C125.29 38 124.542 37.5 123.295 37.5Z" fill="white"/>
<path d="M93.874 37.125H97.24L95.6193 32.75L93.874 37.125Z" fill="white"/>
<path d="M30.294 37.125H33.66L31.9147 32.875L30.294 37.125Z" fill="white"/>
<path d="M124.417 32.375C124.417 31.5 123.794 31.125 122.547 31.125H119.805V33.625H122.547C123.794 33.625 124.417 33.25 124.417 32.375Z" fill="white"/>
<path d="M0 20.375V50.875H187V20.375H0ZM20.6947 44.25H14.96V37.875H9.59933V44.25H3.86467V27.125H9.59933V33.25H14.96V27.125H20.6947V44.25ZM36.4027 44.375L35.156 41.25H28.6733L27.5513 44.25H21.692L29.172 27.125H34.782L42.262 44.25H36.4027V44.375ZM49.2433 38.75C49.9913 39.625 50.9887 40 52.1107 40C53.6067 40 54.978 39.25 55.8507 38L59.466 41.25C58.5933 42.375 57.4713 43.25 56.2247 43.75C54.8533 44.375 53.3573 44.625 51.7367 44.625C49.9913 44.625 48.3707 44.25 46.8747 43.5C45.5033 42.75 44.2567 41.625 43.5087 40.375C41.888 37.5 41.888 34 43.5087 31.125C44.3813 29.75 45.5033 28.625 46.8747 27.875C48.3707 27.125 50.116 26.75 51.7367 26.75C53.2327 26.75 54.7287 27 56.2247 27.625C57.4713 28.125 58.5933 29 59.466 30.125L55.8507 33.375C54.978 32.125 53.6067 31.375 52.1107 31.375C50.9887 31.375 49.9913 31.75 49.2433 32.5C48.4953 33.375 48.1213 34.5 48.1213 35.625C47.9967 36.75 48.3707 37.875 49.2433 38.75ZM72.4313 44.25L68.068 38.625L66.8213 40.125V44.375H61.0867V27.125H66.8213V33.375L72.4313 27.125H78.6647L71.808 34.625L79.0387 44.25H72.4313ZM99.9827 44.25L98.8607 41.25H92.378L91.256 44.25H85.3967L92.8767 27.125H98.4867L105.967 44.25H99.9827ZM129.155 43C127.534 43.875 125.664 44.375 123.794 44.25H114.195V27.125H123.295C125.041 27 126.911 27.5 128.407 28.375C129.529 29.125 130.152 30.25 130.152 31.625C130.152 32.375 129.903 33.125 129.529 33.75C129.03 34.375 128.531 34.875 127.783 35.25C128.656 35.5 129.529 36.125 130.152 36.875C130.651 37.625 131.025 38.5 131.025 39.5C131.149 41 130.401 42.25 129.155 43ZM150.473 40.375C149.6 41.75 148.478 42.875 146.982 43.625C145.486 44.375 143.741 44.875 141.995 44.75L142.12 44.625C140.375 44.625 138.629 44.25 137.133 43.5C135.637 42.875 134.515 41.75 133.643 40.375C132.022 37.5 132.022 34 133.643 31.125C134.515 29.75 135.637 28.625 137.133 27.875C138.629 27.125 140.375 26.625 142.12 26.75C143.865 26.75 145.611 27.125 147.107 27.875C148.478 28.625 149.725 29.75 150.597 31.125C152.093 34 152.093 37.5 150.473 40.375ZM167.178 41.75C166.555 42.625 165.557 43.375 164.435 43.875C163.064 44.375 161.568 44.75 160.072 44.625C158.701 44.625 157.205 44.5 155.833 44.125C154.711 43.875 153.589 43.5 152.467 42.875L154.337 38.625C155.21 39.125 156.083 39.5 157.08 39.75C158.077 40 158.95 40.125 159.947 40.125C160.571 40.125 161.069 40.125 161.693 39.875C161.942 39.75 162.191 39.5 162.191 39.25C162.191 38.875 161.942 38.625 161.568 38.5C160.82 38.25 160.072 38.125 159.324 37.875C158.202 37.625 157.08 37.375 156.083 37C155.21 36.625 154.462 36.125 153.839 35.5C153.091 34.625 152.841 33.625 152.841 32.625C152.841 31.625 153.215 30.5 153.714 29.625C154.337 28.75 155.335 28 156.457 27.5C157.828 27 159.324 26.75 160.82 26.75C161.942 26.75 163.189 26.875 164.311 27.125C165.308 27.375 166.305 27.75 167.303 28.25L165.557 32.375C164.061 31.625 162.441 31.125 160.82 31.125C159.324 31.125 158.576 31.5 158.576 32.25C158.576 32.625 158.825 32.875 159.199 33C159.947 33.25 160.695 33.375 161.443 33.5C162.565 33.75 163.687 34 164.685 34.375C165.557 34.75 166.305 35.25 167.053 35.875C167.801 36.625 168.051 37.75 168.051 38.75C168.175 39.875 167.801 40.875 167.178 41.75ZM183.26 41.75C182.637 42.625 181.639 43.375 180.642 43.875C179.271 44.375 177.775 44.625 176.279 44.625C174.907 44.625 173.411 44.5 172.04 44.125C170.918 43.875 169.796 43.5 168.674 42.875L170.544 38.625C171.417 39.125 172.289 39.5 173.287 39.75C174.284 40 175.157 40.125 176.154 40.125C176.777 40.125 177.276 40.125 177.899 39.875C178.149 39.75 178.398 39.5 178.398 39.25C178.398 38.875 178.149 38.625 177.775 38.375C177.027 38.125 176.279 38 175.531 37.75C174.409 37.5 173.287 37.25 172.289 36.875C171.417 36.5 170.669 36 170.045 35.375C169.422 34.5 169.048 33.5 169.048 32.375C169.048 31.375 169.422 30.25 169.921 29.375C170.544 28.5 171.541 27.75 172.663 27.25C174.035 26.75 175.531 26.5 177.027 26.5C178.149 26.5 179.395 26.625 180.517 26.875C181.515 27.125 182.637 27.5 183.509 28L181.764 32.25C180.268 31.5 178.647 31 177.027 31C175.531 31 174.783 31.375 174.783 32C174.783 32.375 175.032 32.625 175.406 32.75C176.154 33 176.902 33.125 177.65 33.25C178.772 33.5 179.894 33.75 180.891 34.125C181.764 34.5 182.637 35 183.26 35.625C184.008 36.375 184.382 37.5 184.257 38.5C184.133 39.875 183.883 41 183.26 41.75Z" fill="white"/>
<path d="M32.2887 63.3752C31.9147 63.1252 31.5407 63.0002 31.1667 63.1252C30.7927 63.1252 30.294 63.2502 29.92 63.5002C29.546 63.7502 29.2967 64.0002 29.0473 64.3752C28.798 64.7502 28.6733 65.2502 28.798 65.7502C28.798 66.2502 28.9227 66.6252 29.0473 67.1252C29.172 67.5002 29.546 67.7502 29.92 68.0002C30.294 68.2502 30.668 68.2502 31.042 68.2502C31.416 68.2502 31.79 68.1252 32.164 68.0002C32.538 67.7502 32.7873 67.5002 33.0367 67.1252C33.286 66.7502 33.4107 66.2502 33.286 65.7502C33.286 65.2502 33.1613 64.8752 33.0367 64.3752C32.912 63.8752 32.6627 63.5002 32.2887 63.3752Z" fill="white"/>
<path d="M43.01 63.2501H41.6387V68.0001H43.01C43.6333 68.0001 44.2567 67.7501 44.7553 67.3751C45.254 66.8751 45.5033 66.2501 45.3787 65.6251C45.3787 65.0001 45.1293 64.3751 44.7553 63.8751C44.3813 63.3751 43.6333 63.1251 43.01 63.2501Z" fill="white"/>
<path d="M102.975 63.125H101.728V65.5H102.975C103.349 65.5 103.723 65.375 103.972 65.25C104.221 65 104.346 64.75 104.346 64.375V64.25C104.346 63.875 104.221 63.625 103.972 63.375C103.723 63.25 103.349 63.125 102.975 63.125Z" fill="white"/>
<path d="M80.9087 63.3752C80.5347 63.1252 80.1607 63.0002 79.7867 63.1252C78.914 63.1252 78.166 63.6252 77.792 64.3752C77.5427 64.7502 77.418 65.2502 77.5427 65.7502C77.5427 66.2502 77.6673 66.6252 77.792 67.1252C77.9167 67.5002 78.2907 67.7502 78.6647 68.0002C79.0387 68.2502 79.4127 68.3752 79.7867 68.2502C80.1607 68.2502 80.5347 68.1252 80.9087 68.0002C81.2827 67.7502 81.532 67.5002 81.7814 67.1252C82.0307 66.7502 82.1554 66.2502 82.0307 65.7502C82.0307 65.2502 81.906 64.8752 81.7814 64.3752C81.532 63.8752 81.2827 63.5002 80.9087 63.3752Z" fill="white"/>
<path d="M126.786 66.375H128.656L127.783 63.875L126.786 66.375Z" fill="white"/>
<path d="M0 55.125V76H187V55.125H0ZM11.3447 64L6.98133 65.5L11.3447 67V69.5L3.98933 66.875V64.375L11.3447 61.75V64ZM18.8247 67.5C19.3233 68 19.9467 68.25 20.57 68.25C21.4427 68.25 22.3153 67.75 22.814 67L24.9333 68.875C24.4347 69.5 23.8113 70 23.0633 70.375C22.1907 70.75 21.318 70.875 20.4453 70.875C19.448 70.875 18.4507 70.625 17.578 70.25C16.7053 69.875 16.082 69.125 15.5833 68.375C15.0847 67.5 14.8353 66.625 14.8353 65.625C14.8353 64.625 15.0847 63.75 15.5833 62.875C16.082 62.125 16.7053 61.375 17.578 61C18.4507 60.5 19.448 60.375 20.4453 60.375C21.318 60.375 22.1907 60.5 23.0633 60.875C23.8113 61.25 24.4347 61.75 24.9333 62.375L22.814 64.375C22.3153 63.625 21.4427 63.25 20.57 63.125C19.9467 63.125 19.3233 63.375 18.8247 63.875C18.326 64.375 18.0767 65.125 18.2013 65.75C18.2013 66.375 18.4507 67 18.8247 67.5ZM36.1533 68.375C35.6547 69.125 35.0313 69.875 34.1587 70.25C33.286 70.75 32.2887 71 31.1667 70.875C30.1693 70.875 29.172 70.625 28.1747 70.25C27.302 69.875 26.6787 69.125 26.18 68.375L26.0553 68.25C24.684 65.625 25.6813 62.5 28.1747 61.125C30.0447 60.25 32.164 60.25 34.034 61.125C34.9067 61.625 35.53 62.25 36.0287 63C37.1507 64.625 37.1507 66.625 36.1533 68.375ZM48.1213 68.25C47.6227 69 46.9993 69.625 46.1267 70C45.254 70.375 44.2567 70.625 43.2593 70.625H38.2727V60.5H43.2593C44.2567 60.5 45.254 60.75 46.2513 61.125C47.124 61.5 47.7473 62.125 48.246 62.875C48.7447 63.75 48.994 64.625 48.994 65.625C48.8693 66.5 48.62 67.5 48.1213 68.25ZM58.718 70.625H50.3653V60.5H58.5933V63H53.6067V64.125H57.8453V66.625H53.6067V68V68.125H58.718V70.625ZM70.5613 70.625H67.0707V66.875L63.3307 60.5H66.946L69.0653 64L71.1847 60.5H74.426L70.686 67V70.625H70.5613ZM84.7733 68.375C84.2747 69.125 83.5267 69.875 82.7787 70.25C81.906 70.75 80.9087 71 79.7867 70.875C78.7893 70.875 77.792 70.625 76.9193 70.25C76.0467 69.875 75.4233 69.125 74.9247 68.375L74.8 68.25C73.4287 65.625 74.3013 62.5 76.9193 61.125C77.792 60.625 78.7893 60.5 79.7867 60.5C80.784 60.5 81.7813 60.75 82.7787 61.125C83.6513 61.625 84.2747 62.25 84.7733 63C85.7707 64.625 85.7707 66.625 84.7733 68.375ZM96.6167 66C96.7413 67.25 96.2427 68.625 95.37 69.5C94.3727 70.375 93.126 70.875 91.7547 70.75V70.875C90.3833 71 89.1367 70.5 88.1393 69.625C87.2667 68.625 86.768 67.375 86.8927 66.125V60.5H90.2587V66C90.2587 66.625 90.3833 67.125 90.6327 67.625L90.7573 67.75C91.3807 68.375 92.378 68.25 93.0013 67.625C93.2507 67.125 93.5 66.5 93.3753 66V60.5H96.7413V66H96.6167ZM104.471 70.625L102.601 68.25H101.728V70.75H98.362V60.625H103.224C104.097 60.625 104.969 60.75 105.717 61.125C106.341 61.375 106.964 61.875 107.338 62.5C107.712 63.125 107.961 63.875 107.961 64.625C107.961 65.25 107.837 66 107.463 66.5C107.089 67 106.59 67.5 106.091 67.75L108.211 70.75H104.471V70.625ZM119.306 70.625H115.94V63.125H112.948V60.5H122.298V63.125H119.306V70.625ZM130.277 70.625L129.653 68.875H125.789L125.165 70.625H121.675L126.038 60.5H129.404L133.767 70.625H130.277ZM142.494 70.625H134.515V60.5H137.881V68H142.369V70.625H142.494ZM151.969 70.625H143.491V60.5H151.719V63H146.857V64.125H151.096V66.625H146.857V67.875V68H151.969V70.625ZM163.313 70.625H160.571L156.706 66V70.625H153.34V60.5H156.083L159.947 65.125V60.5H163.189V70.625H163.313ZM173.785 63.125H170.793V70.625H167.427V63.125H164.435V60.5H173.785V63.125ZM184.133 67L176.777 69.625V67.125L181.141 65.625L176.777 64.125V61.625L184.133 64.25V67Z" fill="white"/>
<path d="M167.428 70.75V70.625H167.303L167.428 70.75Z" fill="white"/>
<path d="M6.98132 8.75H7.97866L8.22799 7.5H7.10599L6.98132 8.75Z" fill="white"/>
<path d="M0 0V16H40.5167V0H0ZM11.3447 7.375H9.84867L9.724 8.75H10.9707V10.25H9.47467L9.35 11.75H7.60467L7.854 10.375H6.85667L6.60733 11.75H4.98667L5.11133 10.375H3.86467V8.75H5.36067L5.48533 7.375H4.23867V5.875H5.73467L5.85933 4.5H7.48L7.35533 5.875H8.35267L8.602 4.5H10.2227L9.97333 5.875H11.3447V7.375ZM18.8247 9L13.464 10.875V9.125L16.5807 8L13.464 6.875V5.25L18.8247 7.25V9ZM21.1933 12.75H19.1987L22.6893 2.875H24.684L21.1933 12.75ZM30.1693 7L27.0527 8.125L30.1693 9.25V11L24.8087 9.125V7.125L30.1693 5.125V7ZM36.652 9L31.2913 10.875V9.125L34.408 8L31.2913 6.875V5.25L36.652 7.25V9Z" fill="white"/>
</g>
<defs>
<clipPath id="clip0">
<rect width="187" height="76" fill="white"/>
</clipPath>
</defs>
</svg>
