<svg width="158" height="54" viewBox="0 0 158 54" fill="none" xmlns="http://www.w3.org/2000/svg">
<g clip-path="url(#clip0)">
<path fill-rule="evenodd" clip-rule="evenodd" d="M125.292 7.43613L139.712 0.619741V50.8132H125.292V7.43613ZM158 22.8394V50.7247H143.58V22.8394H158ZM15.2109 7.43613L21.8052 4.33777C20.3984 3.89515 19.1675 3.54105 18.0245 3.27548C6.06678 0.885315 3.9566 5.31155 10.1113 16.1115C11.606 18.5017 13.2766 20.9804 15.2109 23.3706V7.43613ZM23.9154 3.364C20.3984 1.94761 17.0573 0.885315 14.2437 0.442692C1.4068 -1.6819 -3.95659 3.89515 3.16528 16.7312C6.24263 21.8656 10.1113 26.7345 15.2988 31.5148V23.3706C18.64 27.5312 22.6845 31.6919 27.872 35.6755C28.4875 36.1181 29.103 36.5607 29.7184 37.0919V42.4919V37.0033V30.0984C29.7184 27.5312 30.6856 25.9378 32.4441 25.9378C34.2026 25.9378 34.906 27.0886 34.906 29.5673V40.7214V45.6788V40.7214C38.335 43.023 42.2916 45.5017 46.3361 47.4492C47.3912 47.9804 48.3584 48.423 49.3255 48.8656V50.7247H45.3689C51.6116 53.1148 61.3712 55.1509 67.6138 53.1148C59.8765 52.1411 55.5682 51.6099 49.3255 48.8656V25.6722C49.3255 24.0788 48.6222 16.3771 38.8626 16.3771C34.3784 16.3771 30.9494 19.387 29.7184 21.6886V7.61318C37.5437 11.3312 46.2482 16.7312 52.1391 21.423C52.8425 21.9542 53.5459 22.5738 54.3372 23.105C53.0184 25.1411 52.227 27.6197 52.227 30.2755V37.2689C52.227 42.3148 54.8648 46.2984 58.7335 48.6886C61.635 50.4591 65.2399 51.1673 68.9327 51.1673C72.6255 51.1673 76.1425 50.4591 79.1319 48.6886C83.0006 46.2984 85.6383 42.3148 85.6383 37.2689V30.2755C85.6383 25.2296 83.0006 21.246 79.1319 18.8558C76.2304 17.0853 72.6255 16.3771 68.9327 16.3771C65.2399 16.3771 61.7229 17.0853 58.7335 18.8558C57.3267 19.7411 56.0078 20.8919 54.9527 22.1312C53.6338 21.0689 52.4029 20.0952 51.2599 19.2099C45.1931 14.4296 37.2799 9.4722 29.7184 5.84269V0.531217L23.9154 3.364ZM45.3689 50.7247H34.906V45.6788C38.1592 47.5378 41.5003 49.2197 44.9293 50.6361L45.3689 50.7247ZM29.7184 42.4919V50.8132H15.2109V31.5148C17.5849 33.7279 20.3105 35.9411 23.3879 38.1542C25.4101 39.5706 27.5203 41.0755 29.7184 42.4919ZM150.79 5.93122C154.747 5.93122 158 9.20663 158 13.1902C158 17.1738 154.747 20.4492 150.79 20.4492C146.834 20.4492 143.58 17.1738 143.58 13.1902C143.58 9.20663 146.834 5.93122 150.79 5.93122ZM105.07 25.8493C106.564 25.8493 107.707 26.9115 107.707 28.3279V39.1279C107.707 40.6329 106.476 41.7837 105.07 41.7837C103.575 41.7837 102.432 40.6329 102.432 39.1279V28.4165C102.432 26.9115 103.663 25.8493 105.07 25.8493ZM121.775 30.364C121.775 25.3181 119.137 21.3345 115.269 18.9443C112.367 17.1738 108.762 16.4656 105.07 16.4656C101.377 16.4656 97.8598 17.1738 94.8703 18.9443C91.0017 21.3345 88.3639 25.3181 88.3639 30.364V37.3574C88.3639 42.4033 91.0017 46.387 94.8703 48.7771C97.7718 50.5476 101.377 51.2558 105.07 51.2558C108.762 51.2558 112.279 50.5476 115.269 48.7771C119.137 46.387 121.775 42.4033 121.775 37.3574V30.364ZM68.8447 25.8493C70.3395 25.8493 71.4825 26.9115 71.4825 28.3279V39.1279C71.4825 40.6329 70.2515 41.7837 68.8447 41.7837C67.35 41.7837 66.207 40.6329 66.207 39.1279V28.4165C66.207 26.9115 67.35 25.8493 68.8447 25.8493Z" fill="white"/>
</g>
<defs>
<clipPath id="clip0">
<rect width="158" height="54" fill="white"/>
</clipPath>
</defs>
</svg>
