<svg width="173" height="37" viewBox="0 0 173 37" fill="none" xmlns="http://www.w3.org/2000/svg">
<g clip-path="url(#clip0)">
<path d="M27.6529 2.51347V34.9641C27.6529 36.5988 28.2979 37.2385 29.9454 37.2385H44.1675C48.5507 37.2385 52.1053 33.7116 52.1053 29.3624V8.11511C52.1053 3.76597 48.5507 0.23877 44.1675 0.23877H29.9454C28.2979 0.23877 27.6529 0.878752 27.6529 2.51347ZM35.5999 5.39468C35.5999 4.224 36.5598 3.27189 37.7394 3.27189H44.0758C46.4842 3.27189 48.4374 5.20987 48.4374 7.59958V29.8782C48.4374 32.268 46.4842 34.2059 44.0758 34.2059H37.7394C36.5595 34.2059 35.5999 33.2535 35.5999 32.0829V5.39468Z" fill="white"/>
<path d="M0.144165 2.51347V34.9641C0.144165 36.5988 0.789167 37.2385 2.43642 37.2385H21.6928C23.34 37.2385 23.985 36.5988 23.985 34.9641V2.51347C23.985 0.878752 23.34 0.23877 21.6928 0.23877H2.43642C0.789167 0.23877 0.144165 0.878752 0.144165 2.51347ZM3.81205 6.00119C3.81205 4.33615 4.88494 3.27161 6.56304 3.27161H17.5667C19.2448 3.27161 20.3177 4.33615 20.3177 6.00119V15.4238C17.0045 15.6636 16.0385 17.8018 16.0385 19.042V32.0826C16.0385 33.2533 15.0787 34.2056 13.8988 34.2056H6.56275C4.88494 34.2056 3.81177 33.1414 3.81177 31.4761V6.00119H3.81205Z" fill="white"/>
<path d="M129.13 2.51339V34.964C129.13 36.5987 129.775 37.2384 131.422 37.2384H147.928C148.35 37.2384 148.692 36.8985 148.692 36.4803V35.7224C148.692 34.8856 147.396 34.2059 146.552 34.2059H139.553C138.187 34.2059 137.077 33.105 137.077 31.7495V22.7116C137.077 21.3561 138.187 20.255 139.553 20.255H147.928C148.35 20.255 148.692 19.9151 148.692 19.4971V17.9808C148.692 17.5623 148.349 17.2227 147.928 17.2227H135.417C133.895 17.2227 132.798 16.1338 132.798 14.6236V6.47745C132.798 4.96718 133.895 3.87832 135.417 3.87832H147.928C148.35 3.87832 148.692 3.53845 148.692 3.12018V0.997396C148.692 0.579133 148.349 0.239258 147.928 0.239258H131.422C129.775 0.238686 129.13 0.878669 129.13 2.51339Z" fill="white"/>
<path d="M55.7732 1.75553V15.1966C55.7732 15.1966 56.0699 16.2159 56.4456 16.5009C56.898 16.8496 57.4971 17.4865 58.2246 18.093C60.1319 19.6791 62.4608 21.8385 62.4977 22.9605V22.9848V36.0136C62.4977 36.6897 63.051 37.2387 63.7326 37.2387H68.5985C69.2802 37.2387 69.8335 36.6897 69.8335 36.0136V22.9848V22.9605C69.8701 21.8385 72.1992 19.6791 74.1066 18.093C74.8337 17.4865 75.4329 16.8493 75.8853 16.5009C76.2613 16.2159 76.5577 15.1966 76.5577 15.1966V1.75553C76.5577 0.918721 75.8729 0.239258 75.0295 0.239258C74.1861 0.239258 73.5014 0.918721 73.5014 1.75553V12.9768C73.5014 14.9117 66.1659 19.649 66.1659 19.649C66.1659 19.649 58.8301 14.9117 58.8301 12.9768V1.75553C58.8301 0.918721 58.1453 0.239258 57.3019 0.239258C56.458 0.238972 55.7732 0.918435 55.7732 1.75553Z" fill="white"/>
<path d="M152.36 1.75553V15.1966C152.36 15.1966 152.656 16.2159 153.032 16.5009C153.484 16.8496 154.084 17.4865 154.811 18.093C156.718 19.6791 159.047 21.8385 159.084 22.9605V22.9848V36.0136C159.084 36.6897 159.637 37.2387 160.319 37.2387H165.185C165.866 37.2387 166.419 36.6897 166.419 36.0136V22.9848V22.9605C166.457 21.8385 168.786 19.6791 170.692 18.093C171.42 17.4865 172.019 16.8493 172.471 16.5009C172.847 16.2159 173.144 15.1966 173.144 15.1966V1.75553C173.144 0.918721 172.459 0.239258 171.616 0.239258C170.772 0.239258 170.087 0.918721 170.087 1.75553V12.9768C170.087 14.9117 162.752 19.649 162.752 19.649C162.752 19.649 155.416 14.9117 155.416 12.9768V1.75553C155.416 0.918721 154.731 0.239258 153.888 0.239258C153.044 0.239258 152.36 0.918435 152.36 1.75553Z" fill="white"/>
<path d="M104.678 17.5257C104.678 19.1908 105.75 20.255 107.429 20.255H119.043C120.223 20.255 121.183 21.2077 121.183 22.3781V32.0829C121.183 33.2535 120.223 34.2059 119.043 34.2059H114.153C112.973 34.2059 112.013 33.2535 112.013 32.0829V27.534C112.013 26.5299 111.191 25.7142 110.18 25.7142H106.511C105.5 25.7142 104.678 26.5301 104.678 27.534V34.9643C104.678 36.5991 105.322 37.2388 106.97 37.2388H123.17C124.817 37.2388 125.462 36.5991 125.462 34.9643V19.0423H125.45C125.328 17.5529 124.286 16.616 122.711 16.616H110.485C109.306 16.616 108.346 15.6636 108.346 14.4932V5.39468C108.346 4.224 109.306 3.27189 110.485 3.27189H119.655C120.835 3.27189 121.795 4.22429 121.795 5.39468V9.94379C121.795 10.9477 122.617 11.7633 123.628 11.7633C124.64 11.7633 125.462 10.9474 125.462 9.94379V2.51347C125.462 0.878752 124.817 0.23877 123.17 0.23877H106.97C105.322 0.23877 104.678 0.878752 104.678 2.51347V17.5257ZM125.462 19.0423C125.462 19.0423 125.459 19.1424 125.45 19.0423H125.462Z" fill="white"/>
<path d="M80.2256 17.5257C80.2256 19.1908 81.2982 20.255 82.9766 20.255H94.5912C95.7711 20.255 96.7309 21.2077 96.7309 22.3781V32.0829C96.7309 33.2535 95.7711 34.2059 94.5912 34.2059H89.7008C88.5212 34.2059 87.5614 33.2535 87.5614 32.0829V27.534C87.5614 26.5299 86.739 25.7142 85.7273 25.7142H82.0594C81.0476 25.7142 80.2256 26.5301 80.2256 27.534V34.9643C80.2256 36.5991 80.8703 37.2388 82.5178 37.2388H98.7175C100.365 37.2388 101.01 36.5991 101.01 34.9643V19.0423H100.998C100.875 17.5529 99.8331 16.616 98.2591 16.616H86.0329C84.853 16.616 83.8935 15.6636 83.8935 14.4932V5.39468C83.8935 4.224 84.8533 3.27189 86.0329 3.27189H95.2025C96.3823 3.27189 97.3422 4.22429 97.3422 5.39468V9.94379C97.3422 10.9477 98.1645 11.7633 99.176 11.7633C100.187 11.7633 101.01 10.9474 101.01 9.94379V2.51347C101.01 0.878752 100.365 0.23877 98.7175 0.23877H82.5178C80.8703 0.23877 80.2256 0.878752 80.2256 2.51347V17.5257ZM101.01 19.0423C101.01 19.0423 101.007 19.1424 100.998 19.0423H101.01Z" fill="white"/>
</g>
<defs>
<clipPath id="clip0">
<rect width="173" height="37" fill="white"/>
</clipPath>
</defs>
</svg>
