<svg width="151" height="109" viewBox="0 0 151 109" fill="none" xmlns="http://www.w3.org/2000/svg">
<g clip-path="url(#clip0)">
<path d="M38.1317 89.4949C38.3014 89.1124 38.3862 88.305 38.3862 87.1577C38.3862 85.5853 38.1317 84.523 37.6228 83.928C37.0714 83.3331 36.0534 83.0781 34.5264 83.0781H30.6666L22.9893 83.1206V95.5292H26.7643V92.3846H30.709H32.2784C33.1691 92.3846 33.7629 92.4696 34.0174 92.6395C34.3992 92.8945 34.5688 93.362 34.5688 94.2119L34.5264 95.5717H38.259V94.6368C38.3014 93.277 38.2166 92.3846 38.0893 92.0871C37.8348 91.3647 37.1562 90.9397 36.0534 90.8122C37.1562 90.5573 37.7924 90.1323 38.1317 89.4949ZM34.3143 88.9425C34.1023 89.1549 33.6781 89.2824 33.0843 89.2824H30.6666H26.7219V86.2228H30.6666H33.1267C33.7205 86.2228 34.1023 86.3078 34.3143 86.5202C34.484 86.6902 34.6112 87.1152 34.6112 87.7101C34.6112 88.305 34.5264 88.73 34.3143 88.9425Z" fill="#BEB9B9"/>
<path d="M44.1124 92.2148H40.1677V95.487H44.1124V92.2148Z" fill="#BEB9B9"/>
<path d="M10.5191 91.1522L6.82893 83.1206H0V95.4867H3.73258L3.64775 86.2227H4.28399L8.94972 95.4867H12.0885L16.7542 86.2227H17.3904L17.3056 95.4867H20.9958V83.1206H14.2093L10.5191 91.1522Z" fill="#BEB9B9"/>
<path d="M52.6803 95.4867H56.4553V91.2372H65.3202V88.39H56.4553V86.0103H65.7868V83.1206H52.6803V95.4867Z" fill="#BEB9B9"/>
<path d="M127.629 83.1207C126.908 82.9507 125.593 82.8657 123.642 82.8657C123.472 82.8657 123.048 82.8232 122.412 82.8232C122.157 82.8232 121.903 82.8232 121.691 82.8232C121.351 82.8232 121.097 82.8232 120.842 82.8232C117.322 82.8232 115.201 83.1207 114.395 83.7581C113.886 84.1406 113.504 84.9055 113.335 85.8829C113.25 86.4778 113.208 87.2852 113.208 88.3476V89.9199C113.208 91.7472 113.377 93.0221 113.759 93.8295C114.141 94.6369 114.819 95.1468 115.795 95.3593C116.516 95.5293 117.831 95.6143 119.782 95.6143C119.952 95.6143 120.376 95.6143 121.012 95.6568C121.267 95.6568 121.521 95.6568 121.733 95.6568C122.072 95.6568 122.327 95.6568 122.624 95.6568C126.102 95.6568 128.265 95.3168 129.071 94.7219C129.877 94.1269 130.259 92.6396 130.259 90.3024V88.4751C130.259 86.6903 130.047 85.373 129.665 84.608C129.283 83.8856 128.604 83.3757 127.629 83.1207ZM126.484 90.0049C126.484 91.1948 126.187 91.9172 125.551 92.2572C125.211 92.4271 124.321 92.5121 122.921 92.5121H121.733H120.461C119.231 92.5121 118.425 92.4271 118.001 92.2572C117.492 92.0872 117.195 91.7897 117.067 91.2798C116.983 90.8973 116.94 90.0899 116.94 88.8576C116.94 87.7102 117.11 86.9878 117.449 86.6478C117.831 86.2653 118.552 86.0954 119.655 86.0954H121.691H123.175C124.533 86.0954 125.423 86.2654 125.805 86.5203C126.229 86.8603 126.441 87.6677 126.441 89.0275V90.0049H126.484Z" fill="#BEB9B9"/>
<path d="M109.517 83.1206H105.53V95.5292H109.517V83.1206Z" fill="#BEB9B9"/>
<path d="M146.674 83.1206L146.758 92.342H146.419L139.887 83.1206H133.313V95.4867H137.172L137.045 86.2227H137.469L144.001 95.4867H150.533V83.1206H146.674Z" fill="#BEB9B9"/>
<path d="M99.7618 87.9651C99.0407 87.7952 97.9803 87.7102 96.6655 87.7102C96.5806 87.7102 96.0292 87.7102 94.9688 87.7102C94.1629 87.7102 93.4843 87.7102 92.9753 87.6677C92.2542 87.6252 91.7452 87.5827 91.4907 87.4552C91.1938 87.3702 91.0666 87.0727 91.0666 86.6903C91.0666 86.3078 91.2362 86.0104 91.5756 85.8829C91.8725 85.7979 93.3146 85.7129 95.8171 85.7129C97.3017 85.7129 98.1076 85.8829 98.2773 86.2653C98.3197 86.4353 98.3197 86.6478 98.3197 86.9878H101.967C102.01 86.6053 102.01 86.3928 102.01 86.2228C102.01 84.693 101.374 83.7156 100.101 83.2482C99.4225 82.9932 98.15 82.8657 96.2413 82.8657C94.0781 82.8657 92.5511 82.9082 91.6604 82.9082C90.0486 82.9932 88.9458 83.2482 88.3944 83.7156C87.7581 84.2681 87.4188 85.2879 87.4188 86.9028C87.4188 88.3476 87.7157 89.325 88.352 89.7924C88.861 90.1749 89.8365 90.4299 91.3635 90.5148L97.3441 90.7698C97.8531 90.7698 98.2348 90.8123 98.3621 90.8548C98.7014 90.9823 98.8711 91.2798 98.8711 91.7047C98.8711 92.2147 98.7014 92.5121 98.3621 92.6396C98.1076 92.7671 96.4958 92.8096 93.5267 92.8096C92.0421 92.8096 91.1938 92.5971 91.0666 92.1297C91.0242 91.9597 91.0242 91.7472 91.0242 91.3648H87.3764V91.8747C87.3764 92.8096 87.4612 93.447 87.6309 93.9145C88.0975 95.0618 89.8789 95.6993 93.0177 95.6993C95.8171 95.6993 97.7258 95.6568 98.7862 95.5718C100.271 95.4868 101.246 95.1893 101.755 94.6369C102.264 94.1269 102.519 93.1071 102.519 91.6197C102.519 90.7273 102.476 90.0474 102.264 89.58C101.84 88.815 101.034 88.2626 99.7618 87.9651Z" fill="#BEB9B9"/>
<path d="M80.8444 88.815C80.8444 90.3023 80.7596 91.2797 80.5475 91.6197C80.2081 92.2146 79.4023 92.4696 78.0874 92.4696H75.7545C74.6093 92.4696 73.8034 92.4271 73.4216 92.2571C72.9126 92.0871 72.6157 91.7471 72.4885 91.2372C72.4037 90.8547 72.3188 90.0048 72.3188 88.7725V83.0781H68.5438V90.3448C68.5438 91.7046 68.6287 92.6395 68.7983 93.2345C69.1376 94.2544 69.9435 94.9343 71.2584 95.3167C72.0643 95.5717 73.2096 95.6992 74.6941 95.6992C77.027 95.6992 78.766 95.6567 79.8688 95.6142C81.2261 95.5292 82.2017 95.3592 82.7955 95.0618C83.7287 94.5943 84.2376 93.8294 84.4497 92.682C84.577 91.9171 84.6194 90.8972 84.6194 89.5799V83.0781H80.8444V88.815Z" fill="#BEB9B9"/>
<path d="M147.183 106.408V105.643H148.625C149.176 105.643 149.558 105.558 149.77 105.431C149.982 105.261 150.109 104.878 150.109 104.326C150.109 103.731 149.897 103.349 149.515 103.179C149.346 103.136 148.837 103.094 148.031 103.094H147.183V102.329H148.625C149.431 102.329 150.024 102.456 150.364 102.711C150.788 102.966 151 103.518 151 104.326C151 104.878 150.958 105.261 150.83 105.473C150.661 105.771 150.364 105.983 149.897 106.068C150.279 106.153 150.576 106.323 150.703 106.621C150.788 106.833 150.873 107.173 150.873 107.598V108.915H149.982V107.81C149.982 107.301 149.94 107.003 149.77 106.791C149.6 106.621 149.388 106.493 149.049 106.451C148.922 106.408 148.54 106.408 147.904 106.408H147.183ZM147.183 102.371V103.136H144.298V105.686H147.183V106.451H144.298V108.958H143.365V102.371H147.183ZM137.766 108.958V108.15C137.978 108.15 138.148 108.15 138.36 108.15C139.336 108.15 139.972 108.108 140.311 107.98C140.651 107.853 140.863 107.556 140.905 107.173C140.947 106.961 140.947 106.281 140.947 105.176C140.947 104.538 140.905 104.156 140.905 103.986C140.82 103.561 140.523 103.306 140.142 103.264C139.717 103.179 139.166 103.136 138.445 103.136H137.724V102.371C137.809 102.371 137.894 102.371 137.936 102.371H138.912C139.845 102.371 140.481 102.456 140.905 102.626C141.287 102.796 141.584 103.136 141.711 103.646C141.838 104.028 141.881 104.751 141.881 105.728C141.881 106.876 141.838 107.598 141.626 108.023C141.456 108.49 141.075 108.745 140.566 108.873C140.184 108.958 139.421 109 138.233 109C138.148 108.958 137.978 108.958 137.766 108.958ZM137.766 102.371V103.136C137.088 103.136 136.706 103.136 136.621 103.136C135.688 103.179 135.094 103.306 134.924 103.476C134.712 103.688 134.585 104.326 134.585 105.388V106.111C134.585 107.088 134.67 107.683 134.84 107.853C134.924 107.98 135.052 108.023 135.221 108.108C135.476 108.15 136.324 108.235 137.766 108.235V109.043H137.597C137.342 109.043 137.088 109.043 136.96 109.043C135.942 109.043 135.264 109 134.924 108.873C134.415 108.745 134.119 108.49 133.906 108.065C133.737 107.683 133.652 107.046 133.652 106.026C133.652 105.048 133.694 104.453 133.694 104.283C133.737 103.688 133.949 103.264 134.203 102.924C134.585 102.584 135.137 102.414 135.9 102.414C136.154 102.414 136.494 102.414 136.96 102.371C137.257 102.371 137.554 102.371 137.766 102.371ZM111.893 107.556V106.791H114.141L112.062 103.136L111.893 103.179V102.371H112.614L116.346 108.958H115.371L114.565 107.598H111.893V107.556ZM123.896 106.706H124.702V107.131C124.745 107.471 124.702 107.726 124.66 107.938C124.49 108.66 123.642 108.958 122.115 108.958C122.03 108.958 121.86 108.958 121.521 109C121.224 109 120.97 109 120.758 109C119.019 109 117.958 108.83 117.576 108.448C117.237 108.108 117.067 107.301 117.067 105.983V105.006C117.067 104.071 117.237 103.391 117.492 103.051C117.788 102.584 118.425 102.371 119.4 102.371C119.655 102.371 120.079 102.371 120.63 102.329C121.182 102.329 121.563 102.286 121.903 102.286C123.557 102.286 124.448 102.669 124.702 103.391C124.745 103.561 124.745 103.858 124.745 104.198V104.538H123.854V104.326C123.854 103.986 123.812 103.731 123.769 103.603C123.599 103.264 122.878 103.094 121.606 103.094C119.697 103.094 118.594 103.221 118.34 103.391C118.085 103.561 117.958 104.326 117.958 105.643C117.958 106.578 118.001 107.131 118.043 107.386C118.128 107.768 118.382 107.98 118.722 108.065C118.976 108.108 119.57 108.15 120.461 108.15H121.691C122.878 108.15 123.599 108.023 123.727 107.768C123.812 107.683 123.854 107.301 123.896 106.706ZM125.338 102.371H132.804V103.136H129.495V108.958H128.604V103.136H125.296V102.371H125.338ZM111.893 102.371V103.179H111.723L109.602 106.833H111.85V107.598H109.178L108.415 108.958H107.397L111.172 102.371H111.893ZM96.0716 106.408V105.643H97.4714C98.0652 105.643 98.4045 105.558 98.6166 105.431C98.8711 105.261 98.9983 104.878 98.9983 104.326C98.9983 103.731 98.7862 103.349 98.3621 103.179C98.1924 103.136 97.6834 103.094 96.9199 103.094H96.114V102.329H97.5138C98.3621 102.329 98.9559 102.456 99.2952 102.711C99.7194 102.966 99.889 103.518 99.889 104.326C99.889 104.878 99.8466 105.261 99.7194 105.473C99.5497 105.771 99.2528 105.983 98.7862 106.068C99.168 106.153 99.4649 106.323 99.5921 106.621C99.677 106.833 99.7618 107.173 99.7618 107.598V108.915H98.8711V107.81C98.8711 107.301 98.8287 107.003 98.659 106.791C98.4893 106.621 98.2772 106.493 97.9379 106.451C97.8107 106.408 97.4289 106.408 96.7503 106.408H96.0716ZM100.737 108.915V102.329H107.227V103.094H101.628V105.133H106.972V105.898H101.628V108.15H107.227V108.915H100.737ZM96.0716 102.371V103.136H93.1874V105.686H96.0716V106.451H93.1874V108.958H92.2966V102.371H96.0716ZM79.9537 106.876V105.601V106.281C79.9537 106.536 79.9537 106.748 79.9537 106.876ZM79.9537 102.371L83.8559 106.238V108.915H84.7466V106.238L88.6065 102.329H87.3764L84.2801 105.516L81.0565 102.329L79.9537 102.371ZM79.9537 105.643H75.6273V106.408H79.0629V106.578C79.0629 107.216 79.0205 107.598 78.8084 107.81C78.5964 108.065 77.7905 108.193 76.3483 108.193C76.1786 108.193 75.9666 108.193 75.7121 108.193C75.4576 108.193 75.3303 108.193 75.2455 108.193C74.5244 108.193 74.0579 108.15 73.8458 108.15C73.4641 108.108 73.2095 107.938 73.0399 107.683C72.8702 107.428 72.7854 107.003 72.7854 106.408V105.261C72.7854 104.326 72.9126 103.731 73.1247 103.518C73.2944 103.349 73.8458 103.264 74.6517 103.221C74.8214 103.221 75.3727 103.179 76.3059 103.179C77.7904 103.179 78.5539 103.306 78.766 103.518C78.9357 103.688 79.0205 104.028 79.0205 104.496H79.9112C79.9112 103.646 79.6992 103.051 79.1902 102.796C78.8933 102.626 78.257 102.499 77.3663 102.456C76.8573 102.414 76.3483 102.414 75.7969 102.414C74.5669 102.414 73.761 102.456 73.464 102.499C72.8702 102.584 72.4885 102.881 72.2764 103.349C72.0643 103.773 71.9795 104.581 71.9795 105.686C71.9795 106.748 72.0219 107.428 72.1492 107.81C72.3188 108.32 72.6157 108.618 73.0823 108.745C73.464 108.873 74.2275 108.958 75.2455 108.958H76.3907C77.748 108.958 78.6388 108.873 79.0629 108.703C79.4871 108.533 79.784 108.193 79.9112 107.683C79.9537 107.513 79.9961 107.258 80.0385 106.876V105.643H79.9537ZM67.3562 106.408V105.643H68.7559C69.3073 105.643 69.689 105.558 69.9011 105.431C70.1556 105.261 70.2829 104.878 70.2829 104.326C70.2829 103.731 70.0708 103.349 69.6466 103.179C69.477 103.136 68.968 103.094 68.1621 103.094H67.3562V102.329H68.7559C69.5618 102.329 70.198 102.456 70.5374 102.711C70.9191 102.966 71.1312 103.518 71.1312 104.326C71.1312 104.878 71.0888 105.261 70.9615 105.473C70.7919 105.771 70.4949 105.983 70.0284 106.068C70.4525 106.153 70.7494 106.323 70.8343 106.621C70.9615 106.833 71.0039 107.173 71.0039 107.598V108.915H70.1132V107.81C70.1556 107.301 70.0708 107.003 69.9011 106.791C69.7739 106.621 69.5194 106.493 69.2225 106.451C69.0952 106.408 68.7135 106.408 68.0348 106.408H67.3562ZM67.3562 102.371V103.136H64.4295V105.686H67.3562V106.451H64.4295V108.958H63.5812V102.371H67.3562ZM13.0216 108.958V108.15C13.1913 108.15 13.4034 108.15 13.6154 108.15C14.5486 108.15 15.1848 108.108 15.5242 107.98C15.8635 107.853 16.0756 107.556 16.1604 107.173C16.2028 106.961 16.2028 106.281 16.2028 105.176C16.2028 104.538 16.2028 104.156 16.1604 103.986C16.0756 103.561 15.8211 103.306 15.3969 103.264C15.0152 103.179 14.4638 103.136 13.7003 103.136H12.9792V102.371C13.0216 102.371 13.1065 102.371 13.1489 102.371H14.1244C15.0576 102.371 15.6938 102.456 16.118 102.626C16.5421 102.796 16.7966 103.136 16.9239 103.646C17.0087 104.028 17.0935 104.751 17.0935 105.728C17.0935 106.876 17.0087 107.598 16.839 108.023C16.6694 108.49 16.3301 108.745 15.7787 108.873C15.4393 108.958 14.6334 109 13.4882 109C13.4034 108.958 13.2337 108.958 13.0216 108.958ZM18.0691 102.371H19.8506L23.4135 107.98L26.934 102.371H28.7154V108.958H27.8247V103.221H27.443L23.7528 108.915H23.0317L19.2992 103.179H18.9174V108.915H18.0267V102.371H18.0691ZM29.7334 108.915V102.329H36.1806V103.094H30.5817V105.133H35.9261V105.898H30.5817V108.15H36.1806V108.915H29.7334ZM39.6587 108.915V102.329H46.1483V103.094H40.5494V105.133H45.8938V105.898H40.5494V108.15H46.1483V108.915H39.6587ZM46.9542 102.371H48.4388L54.1649 108.15H54.377V102.371H55.2677V108.958H53.7831L48.057 103.221H47.8449V108.958H46.9966V102.371H46.9542ZM56.2857 108.915V102.329H62.7753V103.094H57.1764V105.133H62.5208V105.898H57.1764V108.15H62.7753V108.915H56.2857ZM0.169662 102.371H1.06039V105.176H7.12584V102.371H8.01657V108.958H7.12584V105.941H1.06039V108.958H0.169662V102.371ZM13.0216 102.371V103.136C12.3006 103.136 11.9188 103.136 11.8764 103.136C10.9008 103.179 10.3494 103.306 10.1798 103.476C9.92528 103.688 9.79803 104.326 9.79803 105.388V106.111C9.79803 107.088 9.88286 107.683 10.0525 107.853C10.1374 107.98 10.307 108.023 10.4343 108.108C10.6888 108.15 11.5371 108.235 12.9792 108.235V109.043H12.8096C12.5126 109.043 12.3006 109.043 12.1309 109.043C11.1553 109.043 10.4767 109 10.0949 108.873C9.62837 108.745 9.28904 108.49 9.11938 108.065C8.94972 107.683 8.86489 107.046 8.86489 106.026C8.86489 105.048 8.86489 104.453 8.9073 104.283C8.94972 103.688 9.11938 103.264 9.41629 102.924C9.75562 102.584 10.307 102.414 11.0705 102.414C11.325 102.414 11.6643 102.414 12.1309 102.371C12.5551 102.371 12.8096 102.371 13.0216 102.371Z" fill="#BEB9B9"/>
<path d="M150.533 98.0366H0V99.8214H150.533V98.0366Z" fill="#BEB9B9"/>
<path fill-rule="evenodd" clip-rule="evenodd" d="M72.3188 0C51.7472 0 35.0778 16.7431 35.0778 37.3532C35.0778 57.9634 51.7472 74.6639 72.3188 74.6639C92.8904 74.6639 109.56 57.9634 109.56 37.3532C109.56 16.7431 92.8904 0 72.3188 0ZM72.3188 70.4569C54.0376 70.4569 39.2345 55.6261 39.2345 37.3532C39.2345 19.0378 54.0376 4.20702 72.3188 4.20702C90.5576 4.20702 105.361 19.0378 105.361 37.3532C105.361 55.6261 90.5576 70.4569 72.3188 70.4569Z" fill="#BCBCBC"/>
<path d="M72.3188 7.22412C55.7767 7.22412 42.2885 20.7801 42.2885 37.3532C42.2885 53.9263 55.7767 67.4397 72.3188 67.4397C88.861 67.4397 102.349 53.9263 102.349 37.3532C102.349 20.7801 88.8185 7.22412 72.3188 7.22412ZM88.0126 39.4354C88.7761 38.543 89.9213 37.9481 91.1938 37.9481C93.5267 37.9481 95.393 39.8604 95.393 42.1551C95.393 44.4923 93.4843 46.3621 91.1938 46.3621C88.861 46.3621 86.9947 44.4498 86.9947 42.1551C86.9947 41.8576 87.0371 41.5177 87.0795 41.2202L81.6927 38.458L74.5244 42.1126L88.0126 48.9968C88.7761 48.1044 89.9213 47.5095 91.1938 47.5095C93.5267 47.5095 95.393 49.4218 95.393 51.7165C95.393 54.0537 93.4843 55.9235 91.1938 55.9235C88.861 55.9235 86.9947 54.0113 86.9947 51.7165C86.9947 51.4191 87.0371 51.1216 87.1219 50.7816L72.3188 43.2175L57.5157 50.7816C57.5581 51.0791 57.6006 51.3766 57.6006 51.7165C57.6006 54.0537 55.6919 55.9235 53.4014 55.9235C51.0685 55.9235 49.2022 54.0113 49.2022 51.7165C49.2022 49.3793 51.111 47.5095 53.4014 47.5095C54.6739 47.5095 55.8191 48.1044 56.625 48.9968L70.1132 42.1126L62.9449 38.458L57.4733 41.2202C57.5581 41.5177 57.5581 41.8152 57.5581 42.1551C57.5581 44.4923 55.6494 46.3621 53.359 46.3621C51.0261 46.3621 49.1598 44.4498 49.1598 42.1551C49.1598 39.8179 51.0685 37.9481 53.359 37.9481C54.6315 37.9481 55.7767 38.543 56.5826 39.4354L60.6545 37.3532L56.5826 35.2709C55.8191 36.1633 54.6739 36.7582 53.4014 36.7582C51.0685 36.7582 49.2022 34.846 49.2022 32.5512C49.2022 30.214 51.111 28.3442 53.4014 28.3442C55.7343 28.3442 57.6006 30.2565 57.6006 32.5512C57.6006 32.8487 57.5581 33.1886 57.5157 33.4861L62.9025 36.2483L70.0708 32.5937L56.5826 25.7095C55.7767 26.6019 54.6739 27.1968 53.359 27.1968C51.0261 27.1968 49.1598 25.2845 49.1598 22.9898C49.1598 20.6526 51.0685 18.7828 53.359 18.7828C55.6919 18.7828 57.5581 20.6951 57.5581 22.9898C57.5581 23.3298 57.5157 23.6272 57.4733 23.9247L72.2764 31.4888L87.1219 23.7972C87.0795 23.5422 86.9947 23.2023 86.9947 22.8623C86.9947 20.5251 88.9034 18.6553 91.1938 18.6553C93.5267 18.6553 95.393 20.5676 95.393 22.8623C95.393 25.1996 93.4843 27.0693 91.1938 27.0693C89.9213 27.0693 88.7761 26.4744 88.0126 25.582L74.5244 32.4662L81.6927 36.1208L87.0795 33.3586C87.0371 33.1037 86.9522 32.7637 86.9522 32.4237C86.9522 30.0865 88.861 28.2167 91.1514 28.2167C93.4843 28.2167 95.3506 30.129 95.3506 32.4237C95.3506 34.761 93.4418 36.6307 91.1514 36.6307C89.8789 36.6307 88.7337 36.0358 87.9702 35.1434L83.8983 37.2257L88.0126 39.4354Z" fill="white"/>
<path d="M65.1081 37.3533L72.3188 41.0079L79.4871 37.3533L72.3188 33.6562L65.1081 37.3533Z" fill="white"/>
</g>
<defs>
<clipPath id="clip0">
<rect width="151" height="109" fill="white"/>
</clipPath>
</defs>
</svg>
