<svg width="103" height="99" viewBox="0 0 103 99" fill="none" xmlns="http://www.w3.org/2000/svg">
<path d="M100.35 0.97959C98.1565 2.11086 85.2243 8.5277 72.4542 33.2444C72.4542 33.2444 68.3342 42.2565 65.8927 45.5933C63.8041 40.6785 57.5859 31.0579 42.1836 37.1991C42.1836 37.1991 28.765 42.9505 19.5999 61.2219L17.3492 65.6804C14.7646 66.3648 12.1038 67.0018 9.65279 67.4486C6.77261 67.8383 4.39789 67.9904 2.74798 68.0475C2.68122 68.0475 0.726127 67.9714 0.115757 68.0665C-0.494613 68.152 1.55585 71.2321 5.41835 72.4299H5.42789C6.62002 72.9718 7.97428 73.3901 9.53835 73.6753C11.1596 74.046 13.048 74.1981 16.6148 74.0746C16.6816 74.0746 16.7388 74.0745 16.8056 74.065C16.8533 74.065 16.8914 74.065 16.9391 74.065C16.9486 74.065 16.9582 74.065 16.9772 74.065C21.0496 73.9034 26.0565 73.257 32.3033 72.0877C52.7221 68.2756 63.7469 70.253 66.3409 70.9564C68.935 71.6599 69.3737 70.253 69.3737 70.253C69.3737 70.253 78.577 54.767 78.1955 53.9589C77.814 53.1509 77.0033 53.0939 77.0033 53.0939C60.9811 50.6127 50.7765 51.801 33.4572 60.2902C32.5035 60.756 31.5594 61.1933 30.6152 61.6021C30.3291 61.6972 28.0402 62.4957 24.8262 63.5034C24.9788 63.2182 25.4843 62.7999 26.6001 62.163C30.5008 59.929 43.2708 51.6584 52.0735 49.643C60.8667 47.6277 66.7892 48.198 66.7892 48.198C66.7892 48.198 68.3056 44.9659 69.4595 43.0931C70.6135 41.2203 72.2348 38.5585 74.3997 37.2656C76.5646 35.9728 80.7514 34.062 82.2296 32.2653C83.7079 30.4685 85.4722 28.6338 86.5213 21.1903C86.5213 21.1903 87.3415 14.7354 90.9465 10.7047C94.561 6.67394 98.7097 2.43407 102.048 0.494762L102.992 0.00993383C103.001 0.00993383 102.544 -0.151675 100.35 0.97959Z" fill="white"/>
<path d="M80.2732 88.2199C79.6247 88.1534 79.1765 88.1153 78.919 88.1153C78.1942 88.1153 77.6982 88.2389 77.4121 88.4766C77.126 88.7237 76.983 89.142 76.983 89.76V94.1519H73.8262V85.0353H76.8399V86.6608H76.9067C77.0593 86.4232 77.2214 86.1855 77.4026 85.9289C77.9843 85.1683 78.7092 84.7881 79.5866 84.7881C79.825 84.7881 80.0539 84.7976 80.2732 84.8261V88.2199Z" fill="white"/>
<path d="M52.9592 81.7272C52.9592 82.117 52.8066 82.4497 52.5109 82.7349C52.2153 83.0201 51.8433 83.1532 51.4046 83.1532C50.9755 83.1532 50.6131 83.0106 50.3079 82.7349C50.0027 82.4497 49.8501 82.117 49.8501 81.7272C49.8501 81.328 50.0027 80.9857 50.3079 80.71C50.6131 80.4344 50.9755 80.3013 51.4046 80.3013C51.8433 80.3013 52.2057 80.4439 52.5109 80.71C52.8066 80.9857 52.9592 81.328 52.9592 81.7272Z" fill="white"/>
<path d="M53.1308 84.5317H49.6784V94.1522H53.1308V84.5317Z" fill="white"/>
<path d="M71.7757 90.0454C72.6436 89.6176 72.5673 87.3741 72.5673 87.3741C72.5673 87.3741 72.6436 86.528 71.8425 85.5298C71.0509 84.5221 68.0181 84.1704 65.9295 84.8453C63.8409 85.5298 64.0412 88.4673 64.0412 89.6271C64.0412 90.7869 63.984 92.9163 66.0726 93.7814C68.1612 94.6465 72.2812 93.7814 72.2812 93.7814V91.6995C69.2293 92.3174 67.9895 91.9371 67.5127 91.4143C67.0549 90.9105 67.2933 90.2735 67.2933 90.2735C67.2933 90.2735 70.9078 90.4732 71.7757 90.0454ZM67.8083 86.8132C68.3901 86.3093 69.4678 86.7466 69.5727 87.1364C69.6776 87.5357 69.5727 88.6764 69.5727 88.6764H67.3696C67.3696 87.6022 67.2266 87.317 67.8083 86.8132Z" fill="white"/>
<path d="M44.6715 84.7124C43.1932 84.988 42.7164 85.7676 42.7164 85.7676L42.3444 84.9405H39.655V97.8503V98.5157V98.9911L42.7259 97.9168V93.8861C43.1742 94.2283 43.8894 94.5705 44.929 94.4565C45.2056 94.428 45.4535 94.3424 45.6729 94.2283C46.2642 93.9907 46.7792 93.6199 47.2369 93.1066C48.0857 92.1464 48.5149 90.9011 48.5149 89.38C48.5054 85.1116 46.1497 84.4367 44.6715 84.7124ZM42.7164 91.4429V87.7449C43.1742 87.4217 43.9944 86.8988 44.4426 87.0509C44.5094 87.0795 44.5666 87.127 44.6238 87.165C45.1293 87.6213 45.2628 87.9255 45.196 89.4561C45.1293 90.9961 45.2246 91.4049 44.5666 91.9278C44.4521 91.9943 44.3377 92.0418 44.2042 92.0799C43.7559 92.1464 43.1456 91.8042 42.7164 91.4429Z" fill="white"/>
<path d="M59.5016 84.7124C58.0233 84.988 57.5465 85.7676 57.5465 85.7676L57.1745 84.9405H54.4851V97.8503V98.5157V98.9911L57.556 97.9168V93.8861C58.0042 94.2283 58.7195 94.5705 59.7591 94.4565C60.0356 94.428 60.2836 94.3424 60.503 94.2283C61.0942 93.9907 61.6092 93.6199 62.067 93.1066C62.9158 92.1464 63.345 90.9011 63.345 89.38C63.3355 85.1116 60.9703 84.4367 59.5016 84.7124ZM57.5465 91.4429V87.7449C58.0042 87.4217 58.8244 86.8988 59.2727 87.0509C59.3394 87.0795 59.3967 87.127 59.4539 87.165C59.9593 87.6213 60.0929 87.9255 60.0261 89.4561C59.9593 90.9961 60.0547 91.4049 59.3967 91.9278C59.2822 91.9943 59.1678 92.0418 59.0342 92.0799C58.586 92.1464 57.9756 91.8042 57.5465 91.4429Z" fill="white"/>
<path d="M5.9225 84.7124C4.44426 84.988 3.96741 85.7676 3.96741 85.7676L3.59547 84.9405H0.896484V97.8503V98.5157V98.9911L3.96741 97.9168V93.8861C4.41565 94.2283 5.13093 94.5705 6.17047 94.4565C6.44704 94.428 6.695 94.3424 6.91436 94.2283C7.50565 93.9907 8.02065 93.6199 8.47843 93.1066C9.32723 92.1464 9.75639 90.9011 9.75639 89.38C9.75639 85.1116 7.39121 84.4367 5.9225 84.7124ZM3.96741 91.4429V87.7449C4.42519 87.4217 5.24537 86.8988 5.69362 87.0509C5.76037 87.0795 5.8176 87.127 5.87482 87.165C6.38028 87.6213 6.5138 87.9255 6.44704 89.4561C6.38028 90.9961 6.47565 91.4049 5.8176 91.9278C5.70315 91.9943 5.58871 92.0418 5.45519 92.0799C5.00695 92.1464 4.39658 91.8042 3.96741 91.4429Z" fill="white"/>
<path d="M22.8412 90.0454C23.7091 89.6176 23.6328 87.3741 23.6328 87.3741C23.6328 87.3741 23.7091 86.528 22.908 85.5298C22.1164 84.5221 19.0836 84.1704 16.995 84.8453C14.9064 85.5298 15.1067 88.4673 15.1067 89.6271C15.1067 90.7869 15.0494 92.9163 17.138 93.7814C19.2267 94.6465 23.3467 93.7814 23.3467 93.7814V91.6995C20.2948 92.3174 19.055 91.9372 18.5781 91.4143C18.1204 90.9105 18.3588 90.2735 18.3588 90.2735C18.3588 90.2735 21.9733 90.4732 22.8412 90.0454ZM18.8738 86.8132C19.4555 86.3093 20.5332 86.7466 20.6381 87.1364C20.743 87.5357 20.6381 88.6764 20.6381 88.6764H18.4351C18.4351 87.6022 18.292 87.317 18.8738 86.8132Z" fill="white"/>
<path d="M30.6044 80.0825L30.5757 80.092V84.3699C30.1084 84.0087 29.3645 83.6474 28.2964 83.7615C28.0103 83.79 27.7528 83.8851 27.5239 83.9992C26.9135 84.2558 26.3795 84.6456 25.9121 85.1875C25.0347 86.2142 24.5865 87.5261 24.5865 89.1421C24.5865 93.6672 27.028 94.3897 28.5539 94.095C30.0798 93.8003 30.5757 92.9827 30.5757 92.9827L30.9668 93.8573H33.7516V80.1681V80.0825H30.6044ZM30.5757 90.8723C30.1084 91.2146 29.2501 91.7659 28.7828 91.6043C28.716 91.5663 28.6588 91.5188 28.592 91.4807C28.0675 90.9959 27.9245 90.6727 28.0007 89.0471C28.077 87.412 27.9721 86.9842 28.6493 86.4233C28.7637 86.3568 28.8877 86.2997 29.0212 86.2617C29.4981 86.2047 30.137 86.5754 30.5757 86.9557V90.8723Z" fill="white"/>
<path d="M14.1816 84.5317H10.7292V94.1522H14.1816V84.5317Z" fill="white"/>
<path d="M14.0099 81.7272C14.0099 82.117 13.8573 82.4497 13.5616 82.7349C13.266 83.0201 12.8941 83.1532 12.4554 83.1532C12.0262 83.1532 11.6638 83.0106 11.3586 82.7349C11.0534 82.4497 10.9008 82.117 10.9008 81.7272C10.9008 81.328 11.0534 80.9857 11.3586 80.71C11.6638 80.4344 12.0262 80.3013 12.4554 80.3013C12.8941 80.3013 13.2565 80.4439 13.5616 80.71C13.8573 80.9857 14.0099 81.328 14.0099 81.7272Z" fill="white"/>
</svg>
