<svg width="1920" height="709" viewBox="0 0 1920 709" fill="none" xmlns="http://www.w3.org/2000/svg">
<g style="mix-blend-mode:multiply" opacity="0.2" clip-path="url(#clip0)">
<path d="M1741.24 595.306L1846.83 710.943C1863.38 729.065 1862.14 757.101 1844.05 773.611L1843.19 774.397C1825.11 790.908 1797.08 789.603 1780.53 771.481L1758.86 747.75C1756.89 745.592 1755.71 744.298 1755.71 744.298L1647.76 626.072L1789.83 496.348L1602.68 291.395C1562.5 247.384 1494.06 244.199 1450.15 284.295L1376.53 351.516C1332.62 391.613 1329.59 460.053 1369.78 504.064L1533.67 683.56L1705.06 871.254C1753.91 924.757 1840.63 925.488 1898.32 872.812L1922.86 850.405C1980.55 797.729 1987.68 711.302 1938.83 657.798L1817.87 525.334L1741.24 595.306ZM1479.92 442.262C1470.46 431.906 1471.16 416.239 1481.49 406.805L1505.6 384.791C1515.93 375.356 1531.6 376.085 1541.05 386.441L1645.46 500.783L1584.33 556.604L1479.92 442.262Z" fill="#828282"/>
<path d="M597.429 -618.448L514.691 -709.059L-146.146 -105.644L356.582 444.924L604.988 218.103L518.311 123.178L365.048 263.123L261.823 150.075L413.794 11.3092L328.299 -82.322L176.328 56.4437L31.7348 -101.909L597.429 -618.448Z" fill="#828282"/>
<path d="M418.038 605.604C418.038 605.604 418.463 568.028 387.338 533.941L-81.901 20.048C-81.901 20.048 -171.621 -80.8032 -265.472 4.89352L-427.382 153.525L488.639 1156.72L574.741 1078.1L308.406 786.415L370.4 729.808C370.4 729.808 384.607 716.836 400.045 732.014L652.985 1009.02L744.684 925.293L744.29 924.862L744.684 925.293L486.623 642.674C487.053 642.281 450.879 600.935 418.038 605.604ZM289.371 609.944C296.857 618.142 296.309 630.511 288.129 637.98L239.912 682.007C231.732 689.476 219.365 688.901 211.879 680.702L-246.328 178.891C-253.814 170.693 -253.266 158.324 -245.086 150.855L-196.869 106.828C-188.689 99.3586 -176.322 99.9343 -168.836 108.132L289.371 609.944Z" fill="#828282"/>
<path d="M622.249 -591.266L87.1213 -102.638L178.132 -2.96581L330.964 -142.518L1002.71 593.156L1096.13 507.852L424.386 -227.821L713.26 -491.594L622.249 -591.266Z" fill="#828282"/>
<path d="M910.647 -275.423L827.91 -366.034C726.209 -457.527 642.682 -371.763 642.682 -371.763L575.522 -310.439L568.634 -304.149L485.545 -228.28L1157.69 507.825L1248.09 425.273L834.802 -27.3497L900.67 -87.4946C910.572 -96.536 919.167 -85.3942 919.167 -85.3942L949.898 -51.7388L1322.61 356.441L1413.02 273.889L1040.31 -134.291L1035.18 -139.9L1002.09 -176.144C974.721 -201.793 941.887 -206.627 941.887 -206.627C941.845 -242.985 910.647 -275.423 910.647 -275.423ZM812.287 -199.852C821.742 -189.496 821.048 -173.829 810.716 -164.395L759.055 -117.222L660.952 -224.661L711.322 -270.654C722.085 -280.481 739.005 -280.107 749.249 -268.888L812.287 -199.852Z" fill="#828282"/>
<path d="M535.526 331.375L875.143 703.311L990.187 829.303C998.067 837.933 996.191 852.305 985.858 861.74L970.36 875.892C960.028 885.326 945.544 885.891 937.664 877.262L483.003 379.334L381.833 471.713L840.828 974.388C889.682 1027.89 980.706 1024.69 1043.99 966.905L1070.68 942.532C1074.99 938.601 1078.9 934.239 1083.2 930.308L1330.63 1201.28C1338.51 1209.91 1336.63 1224.28 1326.3 1233.71L1310.8 1247.87C1300.47 1257.3 1285.99 1257.87 1278.11 1249.24L1048.41 997.683L946.81 1090.46L1180.44 1346.32C1229.3 1399.83 1320.32 1396.63 1383.61 1338.84L1410.3 1314.47C1473.59 1256.68 1485.02 1166.32 1436.17 1112.82L1096.55 740.884L977.174 610.145L637.557 238.21L535.526 331.375Z" fill="#828282"/>
<path d="M1385.4 729.54L1594.61 958.655C1602.49 967.285 1601.47 980.871 1592 989.52L1577.79 1002.49C1568.32 1011.14 1554.7 1010.92 1546.82 1002.29L1224.14 648.908L1358.46 526.259L1284 444.71L1149.68 567.358L1092.16 504.362L999.167 589.272L1056.69 652.269L1131.15 733.818L1458.16 1091.95C1507.02 1145.45 1593.74 1146.18 1651.42 1093.51L1675.96 1071.1C1733.65 1018.42 1740.79 931.995 1691.93 878.491L1478.39 644.629L1385.4 729.54Z" fill="#828282"/>
<path d="M1694.69 -41.8599L1637.14 -104.031C1637.14 -104.031 1617.94 -127.648 1574.1 -135.885C1509.05 -150.068 1458.28 -104.506 1458.28 -104.506L1395.43 -47.1131C1374.76 -28.2441 1343.04 -30.1338 1324.52 -50.4134L1204.36 -182.015C1197.26 -189.781 1197.81 -202.15 1205.56 -209.226L1291.23 -287.454C1298.98 -294.53 1311.35 -293.954 1318.44 -286.187L1448.46 -143.799L1530.26 -218.489L1403.79 -356.994L1393.54 -368.212C1347.84 -418.264 1271.16 -421.833 1221.65 -376.626L1123.93 -287.391C1074.42 -242.184 1071.41 -165.067 1116.72 -115.446L1126.97 -104.228L1255.8 36.866L1266.04 48.0846C1311.75 98.1362 1388.42 101.705 1437.93 56.4982L1521.02 -19.3709C1529.95 -25.1523 1553.19 -36.878 1571.64 -14.9492L1614.19 31.6505L2068.85 529.578C2076.73 538.208 2076.58 551.008 2068.4 558.477L2056.34 569.484C2048.16 576.953 2035.4 575.946 2027.52 567.316L1526.37 18.474L1446.29 91.5913L1951.78 645.18C2000.63 698.684 2080.89 705.311 2130.83 659.711L2151.93 640.449C2201.87 594.849 2202.54 514.318 2153.69 460.814L1694.69 -41.8599Z" fill="#828282"/>
</g>
<defs>
<clipPath id="clip0">
<rect width="1699.99" height="2103.46" fill="white" transform="translate(-431 151.292) rotate(-42.3994)"/>
</clipPath>
</defs>
</svg>
