<svg width="49" height="52" viewBox="0 0 49 52" fill="none" xmlns="http://www.w3.org/2000/svg">
<path d="M43.9167 46.6667C43.9167 49.5342 41.7659 51.8333 39.0834 51.8333C37.8015 51.8333 36.5721 51.289 35.6657 50.32C34.7592 49.3511 34.25 48.0369 34.25 46.6667C34.25 43.7992 36.4009 41.5 39.0834 41.5C40.3652 41.5 41.5946 42.0443 42.501 43.0133C43.4075 43.9822 43.9167 45.2964 43.9167 46.6667ZM14.9167 41.5C12.2342 41.5 10.0834 43.7992 10.0834 46.6667C10.0834 48.0369 10.5926 49.3511 11.499 50.32C12.4054 51.289 13.6348 51.8333 14.9167 51.8333C17.5992 51.8333 19.75 49.5342 19.75 46.6667C19.75 43.7992 17.5992 41.5 14.9167 41.5ZM15.4 32.7942L15.3275 33.1042C15.3275 33.4658 15.5934 33.75 15.9317 33.75H43.9167V38.9167H14.9167C13.6348 38.9167 12.4054 38.3723 11.499 37.4034C10.5926 36.4344 10.0834 35.1203 10.0834 33.75C10.0834 32.8458 10.3009 31.9933 10.6634 31.27L13.95 24.9408L5.25002 5.33332H0.416687V0.166656H8.31919L10.5909 5.33332H46.3334C47.6625 5.33332 48.75 6.49582 48.75 7.91666C48.75 8.35582 48.6292 8.79499 48.46 9.20832L39.8083 25.9225C38.9867 27.4983 37.3917 28.5833 35.5792 28.5833H17.575L15.4 32.7942ZM18.5417 23.4167H22.1667V18.25H16.27L18.5417 23.4167ZM24.5834 18.25V23.4167H31.8334V18.25H24.5834ZM31.8334 15.6667V10.5H24.5834V15.6667H31.8334ZM39.3492 18.25H34.25V23.4167H36.6667L39.3492 18.25ZM43.385 10.5H34.25V15.6667H40.7025L43.385 10.5ZM12.8384 10.5L15.11 15.6667H22.1667V10.5H12.8384Z" fill="#2E3A59"/>
</svg>
