<svg width="50" height="50" viewBox="0 0 50 50" fill="none" xmlns="http://www.w3.org/2000/svg">
<path d="M0.833313 5.66668V39.5L12.4333 30.8C13.269 30.1708 14.2872 29.8314 15.3333 29.8333H34.6666C37.336 29.8333 39.5 27.6694 39.5 25V5.66668C39.5 2.9973 37.336 0.833344 34.6666 0.833344H5.66665C2.99727 0.833344 0.833313 2.9973 0.833313 5.66668ZM5.66665 29.8333V5.66668H34.6666V25H13.7238C12.6776 24.9972 11.6591 25.3367 10.8238 25.9667L5.66665 29.8333Z" fill="#2E3A59"/>
<path d="M49.1666 49.1667V17.75C49.1666 15.0806 47.0027 12.9167 44.3333 12.9167V39.5L39.1761 35.6333C38.3408 35.0033 37.3224 34.6639 36.2761 34.6667H12.9166C12.9166 37.3361 15.0806 39.5 17.75 39.5H34.6666C35.7127 39.4981 36.7309 39.8375 37.5666 40.4667L49.1666 49.1667Z" fill="#2E3A59"/>
</svg>
