<svg width="39" height="49" viewBox="0 0 39 49" fill="none" xmlns="http://www.w3.org/2000/svg">
<path d="M16.7264 16.375C16.7264 17.8708 15.5138 19.0833 14.018 19.0833C12.5223 19.0833 11.3097 17.8708 11.3097 16.375C11.3097 14.8792 12.5223 13.6667 14.018 13.6667C15.5138 13.6667 16.7264 14.8792 16.7264 16.375Z" fill="#2E3A59"/>
<path d="M24.8386 19.0833C26.3344 19.0833 27.547 17.8708 27.547 16.375C27.547 14.8792 26.3344 13.6667 24.8386 13.6667C23.3429 13.6667 22.1303 14.8792 22.1303 16.375C22.1303 17.8708 23.3429 19.0833 24.8386 19.0833Z" fill="#2E3A59"/>
<path fill-rule="evenodd" clip-rule="evenodd" d="M38.4583 48.8749V19.0833C38.4583 8.61294 29.9704 0.125 19.5 0.125C9.02959 0.125 0.541656 8.61294 0.541656 19.0833V48.8749L8.20208 48.875L12.0321 45.0447L15.8623 48.8749L23.138 48.875L26.9681 45.0447L30.7982 48.8749L38.4583 48.8749ZM33.0417 19.0833C33.0417 11.6045 26.9788 5.54167 19.5 5.54167C12.0211 5.54167 5.95832 11.6045 5.95832 19.0833V43.4582L12.0321 37.3844L19.5001 44.8524L26.9681 37.3844L33.0417 43.4581V19.0833Z" fill="#2E3A59"/>
</svg>
