<svg width="46" height="58" viewBox="0 0 46 58" fill="none" xmlns="http://www.w3.org/2000/svg">
<path d="M23 57.3333C19.8704 57.3333 17.3333 54.7963 17.3333 51.6667H28.6666C28.6666 54.7963 26.1296 57.3333 23 57.3333ZM45.6666 48.8333H0.333313V43.1667L5.99998 40.3333V24.75C5.99998 14.941 10.0261 8.58016 17.3333 6.84332V0.666656H28.6666V6.84332C35.9738 8.57732 40 14.9353 40 24.75V40.3333L45.6666 43.1667V48.8333ZM23 11.2917C19.5424 11.0684 16.2079 12.6156 14.1458 15.4C12.3822 18.1896 11.5169 21.4531 11.6666 24.75V43.1667H34.3333V24.75C34.4829 21.4531 33.6176 18.1896 31.8541 15.4C29.7921 12.6156 26.4576 11.0684 23 11.2917Z" fill="#2E3A59"/>
</svg>
