<svg width="104" height="53" viewBox="0 0 104 53" fill="none" xmlns="http://www.w3.org/2000/svg">
<path d="M78.0114 0.75H26C21.7131 0.749394 17.4926 1.7986 13.7142 3.8042C9.93575 5.8098 6.71668 8.70957 4.34355 12.2453C1.97043 15.7811 0.516876 19.8432 0.112309 24.0699C-0.292258 28.2966 0.364714 32.5568 2.02473 36.4712C3.68475 40.3857 6.29631 43.8328 9.62691 46.5059C12.9575 49.1789 16.9038 50.9948 21.1144 51.792C25.3251 52.5892 29.6694 52.3429 33.7607 51.075C37.8519 49.8071 41.5632 47.557 44.564 44.525H59.436C62.4365 47.5567 66.1472 49.8066 70.238 51.0746C74.3287 52.3425 78.6725 52.5892 82.8828 51.7925C87.093 50.9959 91.0391 49.1807 94.3698 46.5085C97.7004 43.8363 100.312 40.3901 101.973 36.4764C103.634 32.5628 104.292 28.3032 103.888 24.0769C103.485 19.8506 102.033 15.7885 99.6612 12.2524C97.2895 8.71623 94.0718 5.81567 90.2946 3.80886C86.5174 1.80205 82.2978 0.751251 78.0114 0.75ZM40.3 28.4312C40.3 28.9434 40.0945 29.4347 39.7289 29.7969C39.3632 30.159 38.8672 30.3625 38.35 30.3625H29.9V38.7313C29.9 39.2435 29.6945 39.7347 29.3288 40.0969C28.9632 40.459 28.4672 40.6625 27.95 40.6625H24.05C23.5328 40.6625 23.0368 40.459 22.6711 40.0969C22.3054 39.7347 22.1 39.2435 22.1 38.7313V30.3625H13.65C13.1328 30.3625 12.6368 30.159 12.2711 29.7969C11.9054 29.4347 11.7 28.9434 11.7 28.4312V24.5688C11.7 24.0566 11.9054 23.5653 12.2711 23.2032C12.6368 22.841 13.1328 22.6375 13.65 22.6375H22.1V14.2688C22.1 13.7566 22.3054 13.2653 22.6711 12.9032C23.0368 12.541 23.5328 12.3375 24.05 12.3375H27.95C28.4672 12.3375 28.9632 12.541 29.3288 12.9032C29.6945 13.2653 29.9 13.7566 29.9 14.2688V22.6375H38.35C38.8672 22.6375 39.3632 22.841 39.7289 23.2032C40.0945 23.5653 40.3 24.0566 40.3 24.5688V28.4312ZM75.4 40.6625C74.1144 40.6625 72.8577 40.285 71.7888 39.5776C70.7199 38.8702 69.8868 37.8648 69.3948 36.6885C68.9028 35.5122 68.7741 34.2179 69.0249 32.9691C69.2757 31.7204 69.8948 30.5733 70.8038 29.673C71.7129 28.7727 72.871 28.1596 74.1319 27.9112C75.3928 27.6628 76.6997 27.7903 77.8875 28.2775C79.0752 28.7648 80.0903 29.5899 80.8046 30.6485C81.5188 31.7072 81.9 32.9518 81.9 34.225C81.9 35.9323 81.2152 37.5697 79.9962 38.777C78.7772 39.9843 77.1239 40.6625 75.4 40.6625ZM85.8 25.2125C84.5144 25.2125 83.2577 24.8349 82.1888 24.1276C81.1199 23.4202 80.2868 22.4148 79.7948 21.2385C79.3028 20.0622 79.1741 18.7679 79.4249 17.5191C79.6757 16.2704 80.2948 15.1233 81.2038 14.223C82.1129 13.3227 83.271 12.7096 84.5319 12.4612C85.7928 12.2128 87.0997 12.3403 88.2874 12.8275C89.4752 13.3148 90.4903 14.1399 91.2046 15.1985C91.9188 16.2572 92.3 17.5018 92.3 18.775C92.3 20.4823 91.6152 22.1197 90.3962 23.327C89.1772 24.5343 87.5239 25.2125 85.8 25.2125Z" fill="white"/>
</svg>
