<svg width="55" height="86" viewBox="0 0 55 86" fill="none" xmlns="http://www.w3.org/2000/svg">
<path d="M43.7652 0H11.5701C8.55182 0 6.00863 1.03581 3.94054 3.10742C1.87245 5.17904 0.838409 7.72656 0.838409 10.75V75.25C0.838409 78.2734 1.87245 80.821 3.94054 82.8926C6.00863 84.9642 8.55182 86 11.5701 86H43.7652C46.8953 86 49.4665 84.9642 51.4787 82.8926C53.4908 80.821 54.4969 78.2734 54.4969 75.25V10.75C54.4969 7.72656 53.4908 5.17904 51.4787 3.10742C49.4665 1.03581 46.8953 0 43.7652 0ZM47.4543 75.25C47.4543 77.6016 46.2246 78.7773 43.7652 78.7773H11.5701C9.22256 78.7773 8.04878 77.6016 8.04878 75.25V35.7773H47.4543V75.25ZM47.4543 32.25H8.04878V10.75C8.04878 8.39844 9.22256 7.22266 11.5701 7.22266H43.7652C46.2246 7.22266 47.4543 8.39844 47.4543 10.75V32.25ZM43.7652 43C43.7652 44.0078 43.4299 44.8477 42.7591 45.5195C42.0884 46.1914 41.25 46.5273 40.2439 46.5273C39.2378 46.5273 38.3994 46.1914 37.7287 45.5195C37.0579 44.8477 36.7226 44.0078 36.7226 43C36.7226 41.9922 37.0579 41.1523 37.7287 40.4805C38.3994 39.8086 39.2378 39.4727 40.2439 39.4727C41.25 39.4727 42.0884 39.8086 42.7591 40.4805C43.4299 41.1523 43.7652 41.9922 43.7652 43ZM11.5701 14.2773H43.7652V21.5H11.5701V14.2773ZM40.2439 26.875C40.2439 28.1068 39.6291 28.7227 38.3994 28.7227C37.2815 28.7227 36.7226 28.1068 36.7226 26.875C36.7226 25.6432 37.2815 25.0273 38.3994 25.0273C39.6291 25.0273 40.2439 25.6432 40.2439 26.875ZM15.2591 71.7227H25.9908V75.25H15.2591V71.7227ZM29.5122 71.7227H40.2439V75.25H29.5122V71.7227Z" fill="white"/>
</svg>
