<svg width="464" height="567" viewBox="0 0 464 567" fill="none" xmlns="http://www.w3.org/2000/svg">
<g clip-path="url(#clip0)">
<path d="M353.99 483.213V525.368C353.99 531.987 348.569 537.387 341.922 537.387H341.573C334.927 537.387 329.505 531.987 329.505 525.368V516.658C329.505 515.787 329.505 515.439 329.505 515.439V472.239H381.624V397.51C381.624 381.484 368.507 368.419 352.416 368.419H325.307C309.217 368.419 296.1 381.484 296.1 397.51V463.006V531.465C296.1 550.974 313.414 566.826 334.577 566.826H343.671C364.834 566.826 382.149 550.974 382.149 531.465V483.039H353.99V483.213ZM329.68 405.174C329.68 401.342 332.653 398.381 336.501 398.381H345.42C349.268 398.381 352.241 401.342 352.241 405.174V446.981H329.855V405.174H329.68Z" fill="black"/>
<path d="M346.82 33.6194V0.522644H104.238V201.542H195.534V166.877H139.218V125.594H195.01V91.4517H139.218V33.6194H346.82Z" fill="black"/>
<path d="M87.0985 244.742C87.0985 244.742 94.0944 237.426 94.0944 224.884V37.2774C94.0944 37.2774 94.619 0.870972 60.1645 0.870972L0.524788 1.04517V367.2H32.181V260.768H54.9176C54.9176 260.768 60.1645 260.768 60.5142 266.516V367.548H94.2693V367.723V264.6C94.2693 264.6 94.619 249.794 87.0985 244.742ZM60.5142 222.271C60.5142 225.232 58.0657 227.671 55.0925 227.671H37.4279C34.4547 227.671 32.0061 225.232 32.0061 222.271V39.0194C32.0061 36.0581 34.4547 33.6194 37.4279 33.6194H55.0925C58.0657 33.6194 60.5142 36.0581 60.5142 39.0194V222.271Z" fill="black"/>
<path d="M346.82 43.5484H150.411V79.9548H206.553V348.387H240.832V79.9548H346.994V43.5484H346.82Z" fill="black"/>
<path d="M346.82 158.865V125.768C343.147 89.0129 310.791 90.9291 310.791 90.9291H286.131H283.682H253.25V359.536H286.48V194.4H310.616C314.289 194.4 313.939 198.232 313.939 198.232V210.6V359.536H347.169V210.6V208.51V195.271C346.295 185.168 340.698 178.2 340.698 178.2C347.169 171.058 346.82 158.865 346.82 158.865ZM313.414 156.077C313.414 159.91 310.441 162.871 306.593 162.871H287.705V123.677H306.069C310.091 123.677 313.414 126.813 313.414 130.994V156.077Z" fill="black"/>
<path d="M422.724 0H399.288C376.552 0 358.013 17.7677 358.013 39.8903V145.452C358.013 167.574 376.377 185.342 399.288 185.342H422.724C445.461 185.342 464 167.574 464 145.452V39.8903C463.825 17.7677 445.286 0 422.724 0ZM429.371 145.103C429.371 148.587 426.572 151.2 423.074 151.2H398.589C395.091 151.2 392.293 148.587 392.293 145.103V40.5871C392.293 37.1032 395.091 34.4903 398.589 34.4903H423.074C426.572 34.4903 429.371 37.1032 429.371 40.5871V145.103Z" fill="black"/>
<path d="M160.73 211.471V347.168V393.155C160.73 396.29 157.757 398.903 153.909 398.903H148.137C144.289 398.903 141.316 396.465 141.316 393.155V211.471H104.413V394.897C104.413 414.406 123.302 430.258 146.388 430.258H156.182C157.757 430.258 159.331 430.084 160.905 430.084V529.026C160.905 532.161 157.931 534.774 154.084 534.774H148.312C144.464 534.774 141.491 532.336 141.491 529.026V437.226H104.413V530.594C104.413 550.103 123.302 565.955 146.388 565.955H156.182C179.444 565.955 198.158 550.103 198.158 530.594V394.897V347.168V211.471H160.73Z" fill="black"/>
<path d="M258.147 445.239V528.852C258.147 531.987 255.524 534.6 252.026 534.6H246.779C243.281 534.6 240.657 532.161 240.657 528.852V399.948H289.978V370.161H240.657V347.168H206.553V370.161V399.948V530.594C206.553 550.103 223.867 565.955 245.03 565.955H254.124C275.287 565.955 292.602 550.103 292.602 530.594V445.239H258.147V445.239Z" fill="black"/>
<path d="M463.825 348.039L464 330.794C464 330.794 464.525 315.987 456.654 306.406C446.161 291.774 425.173 292.471 425.173 292.471H402.262C394.741 292.471 388.62 286.374 388.62 278.884V230.806C388.62 228.019 391.068 225.581 393.866 225.581H425.348C428.146 225.581 430.595 228.019 430.595 230.806V282.716H464.175V232.2V228.194C464.175 209.903 445.986 195.271 427.796 195.271H391.768C373.579 195.271 358.887 210.077 358.887 228.194V232.374V283.935V288.116C358.887 306.406 373.579 321.039 391.768 321.039H422.2C424.998 321.561 431.819 323.477 431.469 331.142V348.213V529.548C431.469 532.684 429.021 535.297 426.047 535.297H421.675C418.702 535.297 416.253 532.858 416.253 529.548V329.226H386.871V531.29C386.871 550.8 401.737 566.652 420.101 566.652H427.796C446.161 566.652 463.65 550.8 463.65 531.29V348.039H463.825Z" fill="black"/>
<path d="M93.5695 495.232C93.5695 487.393 90.9461 479.903 86.2239 474.329C90.7712 469.277 93.5695 462.484 93.5695 455.342V414.406C93.5695 395.593 78.1787 380.264 59.2899 380.264H0V461.439V484.258V565.432H64.5368C80.4523 565.432 93.3946 552.542 93.3946 536.69L93.5695 495.232ZM47.0471 540.174H32.8805V488.439H47.0471C54.2179 488.439 59.8145 494.187 59.8145 501.155V527.284C59.9894 534.426 54.043 540.174 47.0471 540.174ZM47.0471 458.652H32.8805V406.916H47.0471C54.2179 406.916 59.8145 412.664 59.8145 419.632V445.761C59.9894 452.903 54.043 458.652 47.0471 458.652Z" fill="black"/>
</g>
<defs>
<clipPath id="clip0">
<rect width="464" height="567" fill="white"/>
</clipPath>
</defs>
</svg>
