<svg width="99" height="79" viewBox="0 0 99 79" fill="none" xmlns="http://www.w3.org/2000/svg">
<path d="M5.59863 34.6221H10.4766V63.8896H5.59863C2.91035 63.8896 0.720703 61.7217 0.720703 59.0334C0.720703 59.0334 0.720703 59.0334 0.720703 59.0117V39.5C0.720703 36.8117 2.88867 34.6221 5.59863 34.6221ZM83.6455 27.316V68.7676C83.6455 74.1441 79.2662 78.5234 73.8896 78.5234H25.1104C19.7338 78.5234 15.3545 74.1441 15.3545 68.7676V27.316C15.3545 20.5736 20.8178 15.132 27.5385 15.132H44.6221V5.37616C44.6221 2.68788 46.8117 0.49823 49.5 0.49823C52.1883 0.49823 54.3779 2.68788 54.3779 5.37616V15.132H71.4398C78.1822 15.1103 83.6455 20.5736 83.6455 27.316C83.6455 27.2943 83.6455 27.2943 83.6455 27.316ZM40.9582 39.5C40.9582 36.1396 38.2266 33.408 34.8662 33.408C31.5059 33.408 28.7742 36.1396 28.7742 39.5C28.7742 42.8603 31.5059 45.592 34.8662 45.592C38.2266 45.592 40.9582 42.8603 40.9582 39.5ZM39.7441 59.0117H29.9883V63.8896H39.7441V59.0117ZM54.3779 59.0117H44.6221V63.8896H54.3779V59.0117ZM70.2258 39.5C70.2258 36.1396 67.4941 33.408 64.1338 33.408C60.7734 33.408 58.0418 36.1396 58.0418 39.5C58.0418 42.8603 60.7734 45.592 64.1338 45.592C67.4941 45.592 70.2258 42.8603 70.2258 39.5ZM69.0117 59.0117H59.2559V63.8896H69.0117V59.0117ZM98.2793 39.5V59.0117C98.2793 61.7 96.1113 63.8896 93.423 63.8896C93.423 63.8896 93.423 63.8896 93.4014 63.8896H88.5234V34.6221H93.4014C96.0896 34.6221 98.2793 36.79 98.2793 39.5Z" fill="white"/>
</svg>
