<svg width="78" height="77" viewBox="0 0 78 77" fill="none" xmlns="http://www.w3.org/2000/svg">
<g clip-path="url(#clip0)">
<path d="M5.85638 5.62988C1.81927 5.62988 -1.45612 8.86328 -1.45612 12.8486V65.7861C-1.45612 69.7715 1.81927 73.0049 5.85638 73.0049H69.2314C73.2685 73.0049 76.5439 69.7715 76.5439 65.7861V12.8486C76.5439 8.86328 73.2685 5.62988 69.2314 5.62988H5.85638ZM5.85638 10.4424H22.0048C22.5076 10.4424 22.9189 10.8484 22.9189 11.3447V14.3525C22.9189 14.8488 22.5076 15.2549 22.0048 15.2549H4.33295C3.83021 15.2549 3.41888 14.8488 3.41888 14.3525V12.8486C3.41888 11.5252 4.51576 10.4424 5.85638 10.4424ZM70.7548 24.8799H4.33295C3.83021 24.8799 3.41888 24.4738 3.41888 23.9775V18.5635C3.41888 18.0672 3.83021 17.6611 4.33295 17.6611H25.3564L29.9572 10.8484C30.1247 10.5928 30.4142 10.4424 30.7189 10.4424H69.2314C70.572 10.4424 71.6689 11.5252 71.6689 12.8486V23.9775C71.6689 24.4738 71.2576 24.8799 70.7548 24.8799ZM37.5439 64.583C27.4587 64.583 19.2626 56.492 19.2626 46.5361C19.2626 36.5803 27.4587 28.4893 37.5439 28.4893C47.629 28.4893 55.8251 36.5803 55.8251 46.5361C55.8251 56.492 47.629 64.583 37.5439 64.583ZM37.5439 33.3018C30.1552 33.3018 24.1376 39.2422 24.1376 46.5361C24.1376 53.8301 30.1552 59.7705 37.5439 59.7705C44.9326 59.7705 50.9501 53.8301 50.9501 46.5361C50.9501 39.2422 44.9326 33.3018 37.5439 33.3018ZM30.2314 48.9424C28.8908 48.9424 27.7939 47.8596 27.7939 46.5361C27.7939 41.2273 32.1661 36.9111 37.5439 36.9111C38.8845 36.9111 39.9814 37.9939 39.9814 39.3174C39.9814 40.6408 38.8845 41.7236 37.5439 41.7236C34.8626 41.7236 32.6689 43.8893 32.6689 46.5361C32.6689 47.8596 31.572 48.9424 30.2314 48.9424Z" fill="white"/>
</g>
<defs>
<clipPath id="clip0">
<rect width="78" height="77" fill="white"/>
</clipPath>
</defs>
</svg>
