<svg width="80" height="80" viewBox="0 0 80 80" fill="none" xmlns="http://www.w3.org/2000/svg">
<path d="M69.024 49.012C68.64 46.344 66.58 44.264 63.928 43.644C53.62 41.228 51.036 35.292 50.6 28.708C48.772 28.368 45.52 28 40 28C34.48 28 31.228 28.368 29.4 28.708C28.964 35.292 26.38 41.228 16.072 43.644C13.42 44.268 11.36 46.344 10.976 49.012L8.988 62.78C8.288 67.628 11.848 72 16.8 72H63.2C68.148 72 71.712 67.628 71.012 62.78L69.024 49.012ZM40 61.968C34.42 61.968 29.896 57.488 29.896 51.968C29.896 46.448 34.42 41.968 40 41.968C45.58 41.968 50.104 46.448 50.104 51.968C50.104 57.488 45.576 61.968 40 61.968ZM79.8 24C79.704 18 64.432 8.004 40 8C15.564 8.004 0.291996 18 0.199996 24C0.107996 30 0.283997 37.808 10.34 36.508C22.104 34.984 21.38 30.876 21.38 25.004C21.38 20.908 30.948 19.92 40 19.92C49.052 19.92 58.616 20.908 58.62 25.004C58.62 30.876 57.896 34.984 69.66 36.508C79.712 37.808 79.892 30 79.8 24Z" fill="white"/>
</svg>
