<svg width="72" height="72" viewBox="0 0 72 72" fill="none" xmlns="http://www.w3.org/2000/svg">
<g clip-path="url(#clip0)">
<path d="M55.0385 -0.000443753C54.4182 0.0662421 53.8385 0.340438 53.3935 0.77771L36 18.174L26.9142 9.08263C26.6523 8.82098 26.3415 8.61346 25.9995 8.47192C25.6574 8.33039 25.2909 8.2576 24.9207 8.25773C24.5506 8.25786 24.184 8.3309 23.8421 8.47267C23.5002 8.61445 23.1895 8.82218 22.9278 9.08402C22.3994 9.61282 22.1027 10.3299 22.1029 11.0775C22.1031 11.4476 22.1761 11.8141 22.3179 12.1561C22.4597 12.498 22.6674 12.8087 22.9292 13.0703L32.0178 22.1534H8.30769C6.10436 22.1534 3.99126 23.0287 2.43327 24.5867C0.875272 26.1447 0 28.2578 0 30.4611L0 63.6919C0 65.8952 0.875272 68.0083 2.43327 69.5663C3.99126 71.1243 6.10436 71.9995 8.30769 71.9995H63.6923C65.8956 71.9995 68.0087 71.1243 69.5667 69.5663C71.1247 68.0083 72 65.8952 72 63.6919V30.4611C72 28.2578 71.1247 26.1447 69.5667 24.5867C68.0087 23.0287 65.8956 22.1534 63.6923 22.1534H39.9794L57.3757 4.75986C57.8115 4.35472 58.1052 3.81998 58.2133 3.23486C58.3214 2.64973 58.2382 2.04535 57.976 1.51122C57.7137 0.977101 57.2864 0.541653 56.7573 0.269381C56.2282 -0.00289059 55.6255 -0.0975038 55.0385 -0.000443753ZM29.0769 27.6919C49.6938 27.6919 52.6154 27.75 52.6154 47.0765C52.6154 66.4057 49.4917 66.4611 29.0769 66.4611C8.568 66.4611 5.53846 66.2562 5.53846 47.0765C5.53846 27.9023 8.568 27.6919 29.0769 27.6919ZM62.3077 35.8279C64.7058 35.8279 66.636 37.7552 66.636 40.1534C66.636 42.5515 64.7058 44.4817 62.3077 44.4817C61.7389 44.4832 61.1754 44.3722 60.6496 44.1552C60.1238 43.9382 59.6461 43.6194 59.2439 43.2172C58.8416 42.815 58.5229 42.3373 58.3059 41.8115C58.0889 41.2857 57.9779 40.7222 57.9794 40.1534C57.9794 37.7552 59.9095 35.8251 62.3077 35.8251V35.8279ZM62.3077 46.9048C64.7058 46.9048 66.636 48.8322 66.636 51.2303C66.636 53.6285 64.7058 55.5586 62.3077 55.5586C61.7389 55.5601 61.1754 55.4491 60.6496 55.2321C60.1238 55.0151 59.6461 54.6964 59.2439 54.2942C58.8416 53.8919 58.5229 53.4142 58.3059 52.8884C58.0889 52.3626 57.9779 51.7991 57.9794 51.2303C57.9794 48.8322 59.9095 46.902 62.3077 46.902V46.9048Z" fill="white"/>
</g>
<defs>
<clipPath id="clip0">
<rect width="72" height="72" fill="white"/>
</clipPath>
</defs>
</svg>
