<svg width="103" height="59" viewBox="0 0 103 59" fill="none" xmlns="http://www.w3.org/2000/svg">
<path d="M103 38.864C103 43.9834 103 49.1027 103 54.222C103 58.1894 100.998 59.6826 97.2919 58.4881C90.5616 56.2697 83.8312 54.0513 77.1009 51.7903C74.2043 50.8091 73.6079 49.9985 73.6079 47.0123C73.6079 41.4664 73.6079 35.9204 73.6079 30.3745C73.6079 27.5589 74.1617 26.663 76.8027 25.8098C83.7034 23.4635 90.6468 21.1598 97.5901 18.8561C100.87 17.7896 103 19.4107 103.043 22.9089C103 28.1988 103 33.5314 103 38.864Z" fill="white"/>
<path d="M56.6542 3.71147C59.7212 3.71147 62.703 3.66881 65.6848 3.71147C68.1981 3.75414 69.7742 5.11928 69.8594 7.29499C69.9445 9.51336 68.2833 11.0065 65.6422 11.0491C63.555 11.0918 61.4677 11.0491 59.1249 11.0491C59.5082 12.3716 59.7638 13.3955 60.1472 14.7606C57.6766 14.7606 55.3763 14.8033 53.0761 14.718C52.7353 14.718 52.2667 14.0354 52.0963 13.5661C51.5 11.9877 51.1166 10.2813 50.435 8.74546C50.1795 8.19087 49.4127 7.50829 48.8589 7.50829C41.2766 7.42297 33.6943 7.46563 25.8139 7.46563C25.8139 9.8973 25.8139 12.1583 25.8139 14.6327C23.2154 14.6327 20.9152 14.6327 18.4446 14.6327C18.4446 10.7932 18.2742 6.91104 18.5297 3.0289C18.6575 0.981179 20.3188 -2.15415e-05 22.3209 -2.15415e-05C32.3312 -0.0426824 42.3416 -2.15415e-05 52.3093 -2.15415e-05C54.8225 -2.15415e-05 56.0153 1.49311 56.6542 3.71147Z" fill="white"/>
<path d="M69.8594 22.9516C69.8594 19.7093 68.6241 18.4722 65.3441 18.4722C58.8693 18.4722 52.4371 18.4722 45.9624 18.4722C35.739 18.4722 25.5157 18.4722 15.335 18.4722C12.3106 18.4722 11.0753 19.7093 11.0327 22.7383C11.0327 23.7195 11.0327 24.7007 11.0327 25.7672C3.62076 28.3268 0.127795 32.4223 2.99234e-06 38.4801C-0.127789 44.7086 3.19479 48.6761 11.0327 51.705C11.0327 52.6862 11.0327 53.7527 11.0327 54.8192C11.0753 57.5495 12.3532 58.9573 15.0368 59C31.9053 59.0427 48.8164 59.0427 65.6849 59C68.4963 59 69.8594 57.5922 69.8594 54.7766C69.902 44.154 69.902 33.5741 69.8594 22.9516ZM37.017 44.1967C36.8892 44.1967 36.7188 44.1967 36.591 44.1967C35.3983 44.1967 34.2055 44.1967 32.9702 44.1967C31.6923 44.1967 30.4144 44.282 29.1365 44.1967C27.1344 44.026 25.7287 42.4476 25.7287 40.5278C25.7713 38.6934 27.1344 37.115 29.0513 37.0297C31.7349 36.9017 34.4185 36.9017 37.1021 37.0297C39.0616 37.115 40.3395 38.6934 40.3395 40.5705C40.4247 42.4476 39.019 43.9834 37.017 44.1967Z" fill="white"/>
</svg>
